<?xml version="1.0" encoding="utf-8"?>
<!-- Generator: Adobe Illustrator 16.0.0, SVG Export Plug-In . SVG Version: 6.00 Build 0)  -->
<!DOCTYPE svg PUBLIC "-//W3C//DTD SVG 1.1//EN" "http://www.w3.org/Graphics/SVG/1.1/DTD/svg11.dtd">
<svg version="1.1" id="图层_1" xmlns="http://www.w3.org/2000/svg" xmlns:xlink="http://www.w3.org/1999/xlink" x="0px" y="0px"
	 width="579.301px" height="189.467px" viewBox="0 0 579.301 189.467" enable-background="new 0 0 579.301 189.467"
	 xml:space="preserve">
<g>
	<g>
		<g>
			<g>
				<path fill="#FFFFFF" d="M117.774,8.519c-4.41-2.953-10.438-5.868-18.275-7.401C79.756-2.718,64.75,4.079,55.317,10.044
					c-9.426,5.981-14.75,15.415-14.75,15.415S59.213,7.742,88.502,36.025c4.107,3.633,10.451,9.878,12.748,11.706
					c0.482,0.4,1.02,0.801,1.578,1.193C106.227,52.05,110.698,54,115.667,54c10.535,0,19.07-8.55,19.07-19.077
					C134.879,29.53,130.635,17.771,117.774,8.519z"/>
				<path fill="#FFFFFF" d="M65.241,180.954c4.426,2.945,10.438,5.86,18.291,7.401c19.727,3.821,34.74-2.961,44.182-8.942
					c9.426-5.981,14.742-15.406,14.742-15.406s-18.646,17.732-47.943-10.573c-4.1-3.626-10.451-9.863-12.748-11.706
					c-0.482-0.394-1.012-0.786-1.57-1.193c-3.398-3.111-7.877-5.061-12.846-5.061c-10.535,0-19.055,8.534-19.055,19.063
					C48.157,159.927,52.401,171.709,65.241,180.954z"/>
			</g>
			<g>
				<path fill="#FFFFFF" d="M29.995,28.88c-4.781,2.333-10.324,6.095-15.566,12.129C1.235,56.205-0.388,72.578,0.065,83.74
					c0.482,11.163,5.98,20.482,5.98,20.482S0.018,79.208,39.163,67.986c5.203-1.752,13.797-4.108,16.518-5.181
					c0.588-0.242,1.191-0.498,1.826-0.771c4.381-1.39,8.309-4.29,10.801-8.602c5.256-9.116,2.137-20.776-6.979-26.033
					C56.721,24.59,44.411,22.371,29.995,28.88z"/>
				<path fill="#FFFFFF" d="M153.028,160.592c4.773-2.356,10.316-6.103,15.566-12.129c13.193-15.195,14.824-31.584,14.35-42.73
					c-0.461-11.147-5.967-20.482-5.967-20.482s6.02,24.998-33.117,36.229c-5.211,1.744-13.791,4.116-16.518,5.196
					c-0.58,0.227-1.199,0.483-1.834,0.77c-4.381,1.367-8.301,4.268-10.793,8.572c-5.271,9.139-2.137,20.784,6.979,26.056
					C126.293,164.897,138.604,167.102,153.028,160.592z"/>
			</g>
			<g>
				<path fill="#FFFFFF" d="M179.311,74.39c0.348-5.302-0.137-11.993-2.742-19.553c-6.547-19.009-19.93-28.615-29.809-33.781
					c-9.902-5.174-20.738-5.075-20.738-5.075s24.68,7.288,14.824,46.794c-1.088,5.377-3.33,13.987-3.768,16.902
					c-0.092,0.604-0.166,1.276-0.242,1.963c-0.998,4.486-0.438,9.351,2.039,13.647c5.271,9.123,16.932,12.242,26.055,6.971
					C169.659,99.683,177.725,90.114,179.311,74.39z"/>
				<path fill="#FFFFFF" d="M3.704,115.097c-0.34,5.302,0.145,11.978,2.742,19.53c6.555,19.017,19.93,28.623,29.832,33.789
					C46.163,173.597,57,173.492,57,173.492s-24.688-7.296-14.824-46.786c1.088-5.4,3.322-14.01,3.76-16.902
					c0.092-0.627,0.182-1.292,0.258-1.972c0.996-4.485,0.43-9.35-2.055-13.646c-5.264-9.131-16.924-12.242-26.041-6.971
					C13.364,89.774,5.29,99.351,3.704,115.097z"/>
			</g>
		</g>
		<g>
			<path fill="#FFFFFF" d="M66.381,91.746c-0.158,0.604-0.492,2.454-0.506,2.779c0,0.31,0,0.611,0.014,0.921
				c0,0.166,0,0.333,0,0.483c0.121,13.829,11.639,24.229,26.404,25.028c10.309,0.552,18.441-4.606,21.652-11.041
				c-3.301,2.598-7.477,4.078-11.979,3.942c-8.346-0.242-14.992-6.02-17.424-13.609c-2.529-7.923,4.018-13.737,8.965-9.063
				C93.75,81.263,70.784,74.813,66.381,91.746"/>
			<path fill="#FFFFFF" d="M117.442,97.976c0.166-0.604,0.506-2.47,0.506-2.787c0.008-0.31,0-0.619-0.016-0.921
				c0-0.166,0-0.332,0-0.483c-0.121-13.828-11.637-24.243-26.402-25.028c-10.309-0.559-18.436,4.6-21.652,11.041
				c3.293-2.598,7.484-4.078,11.992-3.941c8.338,0.227,14.992,6.019,17.416,13.608c2.523,7.915-4.018,13.738-8.971,9.063
				C90.057,108.452,113.032,114.886,117.442,97.976"/>
		</g>
	</g>
	<g>
		<g>
			<path fill="#FFFFFF" d="M218.538,160.532v-12.566l-11.436-17.084h4.758l5.877,8.942c0.98,1.525,1.994,3.187,3.021,5.015
				c0.973-1.691,2.053-3.429,3.246-5.227l5.77-8.73h4.533l-11.836,17.084v12.566H218.538z"/>
			<path fill="#FFFFFF" d="M251.389,160.532v-3.127c-1.691,2.402-3.949,3.61-6.797,3.61c-2.779,0-4.766-0.86-5.988-2.553
				c-0.553-0.74-0.914-1.646-1.125-2.703c-0.152-0.726-0.227-1.873-0.227-3.414v-13.292h3.662v11.918
				c0,1.933,0.076,3.217,0.219,3.836c0.484,2.069,1.881,3.081,4.184,3.081c1.088,0,2.1-0.271,3.021-0.815
				c0.99-0.559,1.662-1.329,2.068-2.296c0.387-0.967,0.59-2.371,0.59-4.214v-11.51h3.67v21.479H251.389z"/>
			<path fill="#FFFFFF" d="M258.911,154.113l3.596-0.56c0.424,2.991,2.266,4.472,5.566,4.472c1.275,0,2.379-0.242,3.27-0.726
				c1.117-0.589,1.678-1.495,1.678-2.703c0-0.816-0.363-1.466-1.088-1.934c-0.484-0.317-1.723-0.726-3.717-1.224
				c-2.242-0.589-3.699-0.981-4.334-1.224c-1.744-0.68-2.93-1.541-3.58-2.583c-0.529-0.86-0.801-1.827-0.801-2.885
				c0-1.934,0.83-3.504,2.463-4.683c1.373-0.997,3.193-1.48,5.451-1.48c3.527,0,5.945,0.892,7.258,2.689
				c0.598,0.815,1.014,1.933,1.24,3.322l-3.543,0.469c-0.348-2.326-1.91-3.505-4.682-3.505c-3.111,0-4.652,0.922-4.652,2.779
				c0,1.027,0.619,1.768,1.842,2.251c0.348,0.136,1.436,0.438,3.203,0.922c2.4,0.649,3.807,1.042,4.221,1.223
				c1.707,0.619,2.9,1.42,3.559,2.387c0.572,0.831,0.859,1.858,0.859,3.111c0,2.734-1.373,4.698-4.115,5.892
				c-1.322,0.589-2.848,0.891-4.531,0.891C262.77,161.015,259.719,158.719,258.911,154.113z"/>
			<path fill="#FFFFFF" d="M280.918,168.794l-0.408-3.398c0.801,0.211,1.496,0.316,2.086,0.316c1.434,0,2.477-0.513,3.111-1.525
				c0.242-0.378,0.619-1.284,1.117-2.733c0.105-0.287,0.211-0.574,0.316-0.876l-8.109-21.524h3.881l4.486,12.446
				c0.611,1.707,1.125,3.353,1.557,4.954c0.43-1.707,0.936-3.338,1.494-4.894l4.576-12.507h3.656l-8.148,21.826
				c-0.898,2.387-1.578,4.018-2.047,4.879c-1.254,2.326-2.99,3.474-5.211,3.474C282.581,169.232,281.788,169.082,280.918,168.794z"
				/>
			<path fill="#FFFFFF" d="M300.329,154.113l3.594-0.56c0.424,2.991,2.273,4.472,5.559,4.472c1.299,0,2.402-0.242,3.293-0.726
				c1.104-0.589,1.662-1.495,1.662-2.703c0-0.816-0.363-1.466-1.08-1.934c-0.482-0.317-1.715-0.726-3.709-1.224
				c-2.25-0.589-3.707-0.981-4.35-1.224c-1.736-0.68-2.93-1.541-3.58-2.583c-0.527-0.86-0.785-1.827-0.785-2.885
				c0-1.934,0.816-3.504,2.455-4.683c1.375-0.997,3.195-1.48,5.445-1.48c3.52,0,5.943,0.892,7.266,2.689
				c0.588,0.815,1.004,1.933,1.238,3.322l-3.551,0.469c-0.332-2.326-1.902-3.505-4.697-3.505c-3.088,0-4.637,0.922-4.637,2.779
				c0,1.027,0.627,1.768,1.844,2.251c0.354,0.136,1.434,0.438,3.209,0.922c2.395,0.649,3.799,1.042,4.223,1.223
				c1.705,0.619,2.885,1.42,3.564,2.387c0.559,0.831,0.846,1.858,0.846,3.111c0,2.734-1.367,4.698-4.109,5.892
				c-1.336,0.589-2.84,0.891-4.539,0.891C304.18,161.015,301.137,158.719,300.329,154.113z"/>
			<path fill="#FFFFFF" d="M345.098,160.532v-26.131h-9.758v-3.52h23.473v3.52h-9.787v26.131H345.098z"/>
			<path fill="#FFFFFF" d="M377.112,153.599l3.717,0.483c-1.23,4.622-4.389,6.933-9.418,6.933c-3.309,0-5.861-1.027-7.674-3.097
				c-1.721-1.963-2.582-4.622-2.582-7.96c0-3.323,0.83-5.996,2.5-8.065c1.789-2.221,4.313-3.309,7.545-3.309
				c3.156,0,5.604,1.088,7.34,3.263c1.617,2.024,2.432,4.652,2.432,7.87c0,0.227-0.008,0.559-0.029,0.981h-16.025
				c0.119,2.114,0.68,3.837,1.721,5.136c1.156,1.465,2.75,2.19,4.781,2.19C374.145,158.025,376.04,156.559,377.112,153.599z
				 M365.112,147.723h12.039c-0.166-1.798-0.635-3.157-1.404-4.078c-1.148-1.39-2.652-2.085-4.502-2.085
				c-1.783,0-3.232,0.59-4.35,1.783C365.829,144.476,365.233,145.941,365.112,147.723z"/>
			<path fill="#FFFFFF" d="M399.407,152.663l3.58,0.468c-0.385,2.402-1.344,4.305-2.9,5.71c-1.607,1.45-3.617,2.175-6.027,2.175
				c-3.209,0-5.686-1.072-7.424-3.232c-1.563-1.979-2.355-4.606-2.355-7.899c0-4.954,1.563-8.277,4.668-9.999
				c1.57-0.876,3.277-1.3,5.135-1.3c4.842,0,7.688,2.251,8.564,6.782l-3.535,0.528c-0.693-2.885-2.326-4.335-4.908-4.335
				c-4.131,0-6.209,2.734-6.209,8.218c0,5.498,2.01,8.247,6.012,8.247C397.104,158.025,398.924,156.243,399.407,152.663z"/>
			<path fill="#FFFFFF" d="M406.106,160.532v-29.65h3.67V141.5c1.691-1.949,3.852-2.916,6.436-2.916c3.338,0,5.551,1.163,6.631,3.52
				c0.498,1.103,0.762,2.704,0.762,4.804v13.624h-3.67v-13.64c0-3.474-1.502-5.211-4.508-5.211c-1.074,0-2.086,0.272-3.021,0.831
				c-0.945,0.559-1.617,1.314-2.023,2.28c-0.416,0.967-0.605,2.296-0.605,3.973v11.767H406.106z"/>
			<path fill="#FFFFFF" d="M429.125,160.532v-21.479h3.309v3.036c1.586-2.356,3.852-3.505,6.811-3.505
				c2.795,0,4.805,0.831,6.012,2.508c0.545,0.771,0.906,1.661,1.125,2.704c0.129,0.649,0.205,1.827,0.205,3.519v13.217h-3.664
				v-13.065c0-2.628-0.641-4.335-1.926-5.12c-0.709-0.423-1.555-0.649-2.521-0.649c-3.791,0-5.688,2.371-5.688,7.099v11.736H429.125
				z"/>
			<path fill="#FFFFFF" d="M450.801,149.778c0-3.973,1.118-6.918,3.331-8.821c1.834-1.586,4.086-2.372,6.736-2.372
				c3.164,0,5.656,1.027,7.484,3.112c1.723,1.979,2.582,4.576,2.582,7.794c0,4.999-1.631,8.397-4.871,10.195
				c-1.594,0.892-3.33,1.329-5.195,1.329c-3.262,0-5.793-1.072-7.574-3.217C451.632,155.804,450.801,153.13,450.801,149.778z
				 M454.532,149.778c0,2.326,0.467,4.198,1.404,5.664c1.102,1.722,2.756,2.583,4.932,2.583c2.197,0,3.844-0.876,4.955-2.659
				c0.92-1.465,1.373-3.368,1.373-5.694c0-2.25-0.475-4.108-1.428-5.559c-1.139-1.706-2.771-2.553-4.9-2.553
				c-2.176,0-3.83,0.861-4.932,2.599C454.999,145.609,454.532,147.482,454.532,149.778z"/>
			<path fill="#FFFFFF" d="M475.112,160.532v-29.65h3.639v29.65H475.112z"/>
			<path fill="#FFFFFF" d="M483.019,149.778c0-3.973,1.111-6.918,3.324-8.821c1.842-1.586,4.092-2.372,6.75-2.372
				c3.143,0,5.65,1.027,7.463,3.112c1.729,1.979,2.59,4.576,2.59,7.794c0,4.999-1.623,8.397-4.879,10.195
				c-1.578,0.892-3.314,1.329-5.174,1.329c-3.262,0-5.799-1.072-7.582-3.217C483.851,155.804,483.019,153.13,483.019,149.778z
				 M486.749,149.778c0,2.326,0.461,4.198,1.398,5.664c1.109,1.722,2.756,2.583,4.945,2.583c2.176,0,3.846-0.876,4.955-2.659
				c0.914-1.465,1.367-3.368,1.367-5.694c0-2.25-0.477-4.108-1.443-5.559c-1.133-1.706-2.756-2.553-4.879-2.553
				c-2.189,0-3.836,0.861-4.945,2.599C487.21,145.609,486.749,147.482,486.749,149.778z"/>
			<path fill="#FFFFFF" d="M506.741,162.299l3.512,0.544c0.15,1.072,0.559,1.873,1.238,2.386c0.906,0.68,2.145,1.013,3.715,1.013
				c3.188,0,5.105-1.284,5.771-3.852c0.195-0.71,0.287-2.266,0.287-4.683c-1.602,1.888-3.596,2.824-5.982,2.824
				c-2.93,0-5.256-1.117-6.939-3.308c-1.564-2.009-2.334-4.517-2.334-7.553c0-4.516,1.434-7.748,4.318-9.682
				c1.406-0.937,3.066-1.405,4.955-1.405c2.545,0,4.629,1.013,6.268,3.036v-2.567h3.385v18.549c0,2.688-0.197,4.667-0.605,5.951
				c-0.604,1.979-1.813,3.474-3.662,4.471c-1.465,0.815-3.285,1.208-5.438,1.208c-2.5,0-4.494-0.514-5.975-1.54
				C507.519,166.468,506.681,164.67,506.741,162.299z M509.724,149.4c0,2.266,0.408,4.108,1.209,5.528
				c1.027,1.737,2.582,2.598,4.682,2.598c2.07,0,3.617-0.846,4.652-2.553c0.83-1.404,1.246-3.217,1.246-5.452
				c0-2.146-0.445-3.942-1.336-5.393c-1.059-1.707-2.613-2.568-4.631-2.568c-1.979,0-3.48,0.847-4.516,2.553
				C510.161,145.518,509.724,147.286,509.724,149.4z"/>
			<path fill="#FFFFFF" d="M530.44,135.096v-4.215h3.662v4.215H530.44z M530.44,160.532v-21.479h3.662v21.479H530.44z"/>
			<path fill="#FFFFFF" d="M554.358,153.599l3.73,0.483c-1.238,4.622-4.381,6.933-9.434,6.933c-3.299,0-5.852-1.027-7.664-3.097
				c-1.723-1.963-2.584-4.622-2.584-7.96c0-3.323,0.838-5.996,2.5-8.065c1.789-2.221,4.305-3.309,7.545-3.309
				c3.164,0,5.611,1.088,7.355,3.263c1.617,2.024,2.418,4.652,2.418,7.87c0,0.227,0,0.559-0.023,0.981h-16.033
				c0.121,2.114,0.695,3.837,1.736,5.136c1.141,1.465,2.75,2.19,4.773,2.19C551.405,158.025,553.294,156.559,554.358,153.599z
				 M542.364,147.723h12.039c-0.166-1.798-0.627-3.157-1.396-4.078c-1.156-1.39-2.666-2.085-4.51-2.085
				c-1.775,0-3.217,0.59-4.35,1.783C543.083,144.476,542.485,145.941,542.364,147.723z"/>
			<path fill="#FFFFFF" d="M561.216,154.113l3.594-0.56c0.432,2.991,2.266,4.472,5.566,4.472c1.291,0,2.379-0.242,3.277-0.726
				c1.111-0.589,1.662-1.495,1.662-2.703c0-0.816-0.355-1.466-1.088-1.934c-0.475-0.317-1.713-0.726-3.699-1.224
				c-2.252-0.589-3.693-0.981-4.344-1.224c-1.736-0.68-2.93-1.541-3.58-2.583c-0.521-0.86-0.785-1.827-0.785-2.885
				c0-1.934,0.816-3.504,2.447-4.683c1.389-0.997,3.195-1.48,5.461-1.48c3.512,0,5.936,0.892,7.25,2.689
				c0.604,0.815,1.02,1.933,1.23,3.322l-3.535,0.469c-0.346-2.326-1.902-3.505-4.682-3.505c-3.096,0-4.645,0.922-4.645,2.779
				c0,1.027,0.611,1.768,1.836,2.251c0.361,0.136,1.434,0.438,3.217,0.922c2.379,0.649,3.791,1.042,4.207,1.223
				c1.713,0.619,2.893,1.42,3.572,2.387c0.559,0.831,0.846,1.858,0.846,3.111c0,2.734-1.375,4.698-4.109,5.892
				c-1.328,0.589-2.84,0.891-4.539,0.891C565.083,161.015,562.03,158.719,561.216,154.113z"/>
		</g>
		<g>
			<path fill="#FFFFFF" d="M215.482,60.952h-8.436V40.281h35.317c-0.927-2.317-2.039-4.82-3.151-6.86l8.62-2.41
				c1.669,2.688,3.43,6.396,4.543,9.271h33.834v20.671h-8.898V48.252h-61.829V60.952z M286.395,86.629h-34.576v18.446
				c0,5.191-1.391,7.602-5.191,8.898c-3.707,1.391-9.547,1.483-17.797,1.483c-0.557-2.503-2.225-6.303-3.615-8.621
				c6.303,0.278,13.07,0.278,15.017,0.186c1.854-0.093,2.41-0.463,2.41-2.039V86.629h-35.411v-8.251h35.411V65.679h-22.433v-7.972
				h52.467v7.972h-20.857v12.699h34.576V86.629z"/>
			<path fill="#FFFFFF" d="M327.733,33.513c-2.133,5.84-4.729,11.865-7.51,17.521v65.073h-7.879V64.752
				c-2.502,3.894-5.191,7.323-7.786,10.382c-0.835-1.854-3.245-6.303-4.635-8.25c8.064-8.713,15.48-22.247,20.022-35.688
				L327.733,33.513z M384.649,45.657v7.045h-58.771v-7.045h27.16c-1.298-3.337-3.894-8.343-6.21-12.051l7.415-2.873
				c2.503,3.708,5.284,8.713,6.675,12.05l-6.675,2.874H384.649z M331.163,85.794h47.461v29.756h-7.602v-3.059h-32.537v3.337h-7.322
				V85.794z M377.604,65.958h-45.145v-6.859h45.145V65.958z M332.459,72.168h45.145v6.859h-45.145V72.168z M338.485,92.747v12.793
				h32.537V92.747H338.485z"/>
			<path fill="#FFFFFF" d="M427.655,87.556c-1.299-2.781-4.45-7.973-7.23-12.236v40.509h-8.344V78.287
				c-3.43,8.435-7.601,16.314-11.865,21.598c-0.834-2.317-2.873-5.84-4.171-7.972c5.47-6.304,11.401-17.334,14.831-27.16H397.25
				v-8.064h14.831V44.266c-3.985,0.742-7.971,1.298-11.68,1.854c-0.277-1.854-1.482-4.913-2.41-6.675
				c10.383-1.668,22.248-4.356,29.479-7.508l4.912,7.045c-3.521,1.39-7.601,2.503-11.957,3.522v14.183h12.977v8.064h-12.977v1.298
				c2.78,2.873,10.66,12.328,12.421,14.738L427.655,87.556z M471.13,92.098v23.73h-8.529V93.582l-29.2,4.913l-1.297-8.251
				l30.497-5.098v-54.32h8.529v52.93l10.104-1.669l1.297,8.065L471.13,92.098z M450.921,79.583
				c-3.06-3.985-9.826-9.918-15.48-13.812l5.47-5.006c5.561,3.708,12.606,9.271,15.85,13.163L450.921,79.583z M453.239,55.205
				c-2.782-3.894-9.084-9.548-14.369-13.441l5.654-4.913c5.284,3.615,11.681,8.992,14.74,12.886L453.239,55.205z"/>
			<path fill="#FFFFFF" d="M524.61,78.564c-3.523,1.02-7.045,2.04-10.568,3.06v24.379c0,4.449-0.926,6.767-3.615,8.064
				c-2.688,1.298-6.859,1.576-13.162,1.483c-0.371-2.039-1.482-5.654-2.596-7.786c4.078,0.093,7.973,0.093,9.084,0
				c1.391,0,1.854-0.464,1.854-1.762V84.034c-3.615,1.02-6.951,1.946-10.195,2.78l-2.225-8.25c3.521-0.834,7.785-1.854,12.42-2.966
				V56.966h-11.4v-7.973h11.4V30.826h8.436v18.075h9.734v8.065h-9.734v16.314l9.549-2.503L524.61,78.564z M574.573,67.255
				c-3.707,12.792-9.918,22.896-18.076,30.683c6.396,4.82,13.998,8.436,22.805,10.753c-1.947,1.669-4.357,5.099-5.563,7.323
				c-9.361-2.688-17.242-6.859-24.008-12.515c-7.416,5.563-16.037,9.641-25.307,12.329c-0.928-2.225-3.059-5.933-4.635-7.787
				c8.621-2.132,16.686-5.654,23.822-10.475c-6.117-6.767-10.846-14.738-14.367-24.008l1.205-0.371h-3.709v-7.88h19.096V52.609
				h-20.764V44.73h20.764V30.826h8.529V44.73h21.412v7.879h-21.412v12.699h13.162l1.484-0.277L574.573,67.255z M537.681,73.188
				c2.967,7.23,7.045,13.626,12.422,19.096c5.746-5.284,10.381-11.68,13.533-19.096H537.681z"/>
		</g>
	</g>
</g>
</svg>
