<?xml version="1.0" standalone="no"?>
<!DOCTYPE svg PUBLIC "-//W3C//DTD SVG 1.1//EN" "http://www.w3.org/Graphics/SVG/1.1/DTD/svg11.dtd" >
<!--
2013-9-30: Created.
-->
<svg>
<metadata>
Created by iconfont
</metadata>
<defs>

<font id="iconfont" horiz-adv-x="1024" >
  <font-face
    font-family="iconfont"
    font-weight="500"
    font-stretch="normal"
    units-per-em="1024"
    ascent="896"
    descent="-128"
  />
    <missing-glyph />
    
    <glyph glyph-name="pilianggengxin" unicode="&#58913;" d="M302.528 779.648h409.6a27.904 27.904 0 0 1 0 55.872h-409.6a27.904 27.904 0 1 1 0-55.872z m-93.056-102.4h595.776a27.904 27.904 0 0 1 0 55.872h-595.84a27.904 27.904 0 1 1 0-55.872z m670.208-55.872H144.32C92.8 621.44 51.2 579.712 51.2 528.32v-512c0-51.456 41.664-93.12 93.12-93.12h735.36c51.456 0 93.12 41.664 93.12 93.12v512c0 51.392-41.664 93.056-93.12 93.056z m37.248-594.304a46.528 46.528 0 0 0-46.528-46.592H153.6a46.528 46.528 0 0 0-46.528 46.592v482.56c0 25.728 20.8 46.592 46.528 46.592h716.8c25.728 0 46.528-20.864 46.528-46.528v-482.624zM593.28 136.512a137.984 137.984 0 0 0-108.288-23.68l-5.312 1.28a130.368 130.368 0 0 0-22.208 7.232l-2.112 1.024a138.56 138.56 0 0 0-43.52 30.464l-0.448 0.512a136.896 136.896 0 0 0-8.448 9.6l-1.728 2.176A147.776 147.776 0 0 0 370.112 256h37.376l-59.776 92.16L288 256h37.312c0-40.32 12.288-77.76 33.088-108.8l0.64-1.28c2.176-3.2 4.608-6.08 6.912-9.088l2.56-3.392c3.392-4.288 7.04-8.256 10.752-12.16l1.024-1.088c12.416-12.8 26.56-23.68 41.92-32.384l1.28-0.64c4.48-2.496 8.96-4.672 13.568-6.784l3.392-1.6c3.968-1.664 8-3.2 12.096-4.544l5.76-1.92c3.584-1.152 7.232-2.048 10.88-2.944 2.496-0.64 4.928-1.28 7.36-1.728l3.072-0.704c3.456-0.64 6.912-0.96 10.432-1.408l3.712-0.512a181.76 181.76 0 0 1 125.376 33.792 23.488 23.488 0 0 1 5.504 32.064 22.08 22.08 0 0 1-31.36 5.632zM698.752 256c0 38.784-11.52 76.672-32.896 108.608l-0.832 1.536c-2.56 3.776-5.44 7.232-8.192 10.816l-0.96 1.28a184.832 184.832 0 0 1-69.76 53.824l-2.176 1.088a191.744 191.744 0 0 1-13.184 4.928l-4.736 1.664a208.768 208.768 0 0 1-11.776 3.136c-2.176 0.512-4.352 1.088-6.528 1.472-1.088 0.256-2.176 0.64-3.2 0.768-2.944 0.512-5.952 0.768-8.896 1.152-2.048 0.256-4.032 0.64-6.08 0.832a213.376 213.376 0 0 1-14.848 0.768L512 448h-0.512c-38.144 0-75.328-12.16-106.496-34.688a23.488 23.488 0 0 1-4.736-31.552c6.848-10.112 20.224-12.8 30.4-6.208a138.24 138.24 0 0 0 94.848 25.664l3.776-0.512c3.392-0.384 6.72-0.896 10.048-1.536l4.288-1.024c3.2-0.768 6.464-1.536 9.6-2.56l3.008-1.024c3.584-1.216 7.168-2.56 10.624-3.968l1.024-0.512c20.928-9.216 39.36-23.488 53.76-41.6 20.864-26.048 32.256-58.688 32.256-92.416h-37.312l59.712-92.16 59.712 92.16h-37.312z"  horiz-adv-x="1024" />

    
    <glyph glyph-name="wailian" unicode="&#58900;" d="M768 384a128 128 0 1 0-64-238.848 128 128 0 1 0 0.128 221.696C722.56 377.728 744.512 384 768 384z m0-64c-5.504 0-10.88-0.64-16-2.048 10.24-18.368 16-39.488 16-61.952 0-22.976-6.016-44.48-16.64-63.104l0.832 1.216A64 64 0 1 1 768 320z m-128 0a64 64 0 1 1 0-128 64 64 0 0 1 0 128zM896 768a128 128 0 0 0 128-128v-512a128 128 0 0 0-128-128H128a128 128 0 0 0-128 128V640a128 128 0 0 0 128 128h768zM64 448v-320a64 64 0 0 1 56.512-63.552L128 64h768a64 64 0 0 1 63.552 56.512L960 128V448H64z m0 64h896V640a64 64 0 0 1-56.512 63.552L896 704H128a64 64 0 0 1-63.552-56.512L64 640v-128z"  horiz-adv-x="1024" />

    
    <glyph glyph-name="xiazaishouce" unicode="&#58934;" d="M768 256H193.6c-24 0-46.4-6.4-65.6-17.6V703.232C128 739.2 156.8 768 192.832 768H768v-512z m64 576H192.768C121.6 832 64 774.4 64 703.168v-638.4C64-6.4 121.6-64 192.832-64H960V768h-64v-768H193.6A65.92 65.92 0 0 0 128 65.6v60.8A65.92 65.92 0 0 0 193.6 192H832V832z m0-704H192v-64h640v64z"  horiz-adv-x="1024" />

    
    <glyph glyph-name="home" unicode="&#59572;" d="M805.76-107.51999999999998H217.6a97.024 97.024 0 0 0-96.896 96.896V337.91999999999996h-62.72a32 32 0 0 0-23.04 54.208l457.6 474.24a32 32 0 0 0 46.08 0l457.6-474.24a32 32 0 0 0-23.04-54.208h-70.4v-348.544c-0.064-53.504-43.456-96.896-96.96-96.896zM133.312 401.92h19.392a32 32 0 0 0 32-32v-380.544a32.96 32.96 0 0 1 32.96-32.896h588.16c18.24 0 32.96 14.72 32.96 32.896V369.91999999999996a32 32 0 0 0 32 32h27.072L515.52 798.08 133.248 401.92zM643.52-107.51999999999998h-256a32 32 0 0 0-32 32v319.616c0 24.96 20.224 45.12 45.184 45.184h229.632c24.96 0 45.12-20.224 45.184-45.184v-319.616a32 32 0 0 0-32-32z m-224 64h192v268.8h-192v-268.8z"  horiz-adv-x="1024" />

    
    <glyph glyph-name="jichushuju" unicode="&#58933;" d="M832 693.184v-640h64v640h-64z m-640-640v640H128v-640h64zM832 64c1.664-23.296-24.96-57.344-83.968-83.968C689.92-46.528 605.952-64 512-64c-93.12 0-177.92 17.472-236.032 44.032C216.128 6.656 190.336 40.704 192 64H128c10.816-128 184.512-188.672 384-192 199.488 3.328 373.184 64 384 192h-64z m0 213.632c1.664-23.296-24.96-57.344-83.968-83.968-58.176-26.624-142.08-44.032-236.032-44.032-93.12 0-177.92 17.408-236.032 44.032-59.84 26.624-85.632 60.672-83.968 83.968H128c10.816-128 184.512-188.672 384-192 199.488 3.328 373.184 64 384 192h-64z m0 212.736c1.664-23.232-24.96-57.344-83.968-83.904-58.176-26.624-142.08-44.096-236.032-44.096-93.12 0-177.92 17.472-236.032 44.096C216.128 433.024 190.336 467.136 192 490.368H128c10.816-128 184.512-188.672 384-192 199.488 3.328 373.184 64 384 192h-64z m0 235.264c1.664-23.296-24.96-57.344-83.968-83.968-58.176-26.624-142.08-44.032-236.032-44.032-93.12 0-177.92 17.408-236.032 44.032C216.128 668.288 190.336 702.336 192 725.632H128c10.816-128 184.512-188.672 384-192 199.488 3.328 373.184 64 384 192h-64zM192 704c-1.664 23.296 24.96 57.344 83.968 83.968C334.08 814.528 418.048 832 512 832c93.12 0 177.92-17.472 236.032-44.032 59.84-26.624 85.632-60.672 83.968-83.968h64c-10.816 128-184.512 188.672-384 192-199.488-3.328-373.184-64-384-192h64z"  horiz-adv-x="1024" />

    
    <glyph glyph-name="fengxianguanli" unicode="&#58930;" d="M567.643103 895.99744l7.039543-0.383975c32.445891-3.519771 57.788244-31.037983 57.788243-64.507807l11.327264-73.595216c13.951093-4.991676 27.582207-10.751301 40.893342-17.278877l59.004165 43.837151h0.063996l6.1436 5.439646c25.406349 19.83871 62.203957 17.918835 85.562439-5.439646l77.242979-77.882938 5.439646-6.143601c19.774715-25.470344 17.918835-62.267953-5.439646-85.69043l-44.15713-59.964102c6.399584-13.311135 12.031218-26.942249 16.894902-40.957338l72.955258-11.007284h0.639958c35.837671 0 64.891782-28.990116 64.891782-64.827787v-109.68887c0-35.837671-29.054111-64.891782-64.891782-64.891782l-74.555154-11.327264a392.294501 392.294501 0 0 0-16.894901-39.933404l44.157129-60.028098a64.891782 64.891782 0 0 0 0-91.834031l-77.562958-77.498963v-0.063995a64.827786 64.827786 0 0 0-91.770035 0l-61.308015 45.117067c-12.863164-6.079605-26.110303-11.519251-39.549429-16.190948l-11.39126-74.29917c0-35.837671-28.990116-64.891782-64.827786-64.891782H455.650383l-7.039543 0.383975a64.891782 64.891782 0 0 0-57.852239 64.507807l-11.327264 75.579087a392.294501 392.294501 0 0 0-39.293446 16.574923l-60.604061-44.797088h-0.063996a64.827786 64.827786 0 0 0-91.770034 0l-77.498963 77.562958-5.439646 6.143601a64.891782 64.891782 0 0 0 5.439646 85.69043l45.117067 60.988036a392.294501 392.294501 0 0 0-16.254943 41.149325l-74.235175 11.39126C29.054111 267.23831 0 296.292421 0 332.130092V441.754966l0.383975 7.039542a64.891782 64.891782 0 0 0 64.507807 57.85224l74.555154 9.727368c4.799688 13.631114 10.30333 26.942249 16.574923 39.933404l-44.15713 60.028098a64.891782 64.891782 0 0 0 0 91.834031L189.427687 785.668612v0.063995a64.827786 64.827786 0 0 0 91.770035 0l60.348078-44.157129c13.247139 6.399584 26.878253 12.031218 40.829346 16.830906l11.07128 72.699274 0.383975 7.039543A64.891782 64.891782 0 0 0 458.210216 895.99744H567.643103z m0-64.891782H457.250279v-9.727368l-10.047347-72.699274-5.823622-38.589492-36.989595-12.991155c-11.583247-4.095734-23.038502-8.895422-34.045787-14.271073l-35.069721-16.830906-32.381895 23.038503-60.348077 44.797088-3.839751 2.559834-3.647763 3.519771L157.941734 662.412623l4.223725-3.583767 1.919875-3.83975 44.477109-59.452136 23.038503-32.445891-16.894902-35.005725a329.322594 329.322594 0 0 1-13.951093-32.445891l-12.991156-36.669616-38.589491-5.823622-74.555154-11.391259h-9.727368v-111.928725h9.727368l74.235174-11.327263 38.589492-6.527576 12.671177-35.645683c3.967742-11.07128 8.511447-21.886577 13.631114-32.445891l16.830905-35.069721-23.038502-32.445891-45.373051-61.308015-2.559833-3.83975-3.583767-3.583767 77.498962-77.562959 3.583767 3.583768 3.839751 2.879812 60.668056 44.797089 32.445891 23.038502 35.3897-16.894902c10.559314-5.119667 21.374611-9.599376 32.381895-13.631114l36.669617-12.92716 5.823621-38.333508 11.39126-75.515091v-11.071281h110.264832v9.727368l11.327264 74.235175 6.527576 38.333508 36.9256 12.991156c11.07128 3.967742 21.886577 8.511447 32.445891 13.631114l33.725807 18.174818 32.445891-23.038502 61.308015-45.117068 3.839751-2.943808 3.583767-3.519772 77.562958 78.138921-3.583767 3.583767-2.943808 3.903747-44.093134 60.028098-23.358482 32.445891 17.214881 35.325704c5.247659 10.559314 9.855359 21.438606 13.951093 32.445891l12.991156 36.349637 38.269512 5.823622 74.555154 11.391259h9.727368l0.639958 110.968787h-9.727367l-72.955258 11.007285-38.909471 5.823621-12.671177 36.989596a328.682636 328.682636 0 0 1-13.951093 34.109783l-17.470864 33.725807 23.038502 32.445891 44.413113 59.38814 2.879813 3.839751 3.583767 3.583767-77.498962 77.562958-3.583767-3.583767-4.223726-1.919875-59.324144-43.517172-32.445891-23.358481-35.389699 17.214881a328.810627 328.810627 0 0 1-34.365767 14.271072l-36.60562 12.991156-4.863684 38.269512-11.39126 73.595217v9.791363z m-39.677421-259.37514a31.99792 31.99792 0 0 0 11.711239-43.709159L471.329364 409.629054h136.695114l3.327784-0.191987a31.741937 31.741937 0 0 0 12.799168-4.15973 31.99792 31.99792 0 0 0 11.775235-43.709159l-95.993761-166.261193a31.99792 31.99792 0 1 0-55.420397 31.99792L552.796068 345.633214H416.036958a31.99792 31.99792 0 0 0-9.279397 1.343912l-1.727888 0.639959a31.99792 31.99792 0 0 0-16.76691 46.077005l95.99376 166.261193a31.99792 31.99792 0 0 0 43.709159 11.711239z"  horiz-adv-x="1024" />

    
    <glyph glyph-name="dae" unicode="&#58890;" d="M0 896h1024v-1024H0zM0 768m32 0l448 0q32 0 32-32l0 0q0-32-32-32l-448 0q-32 0-32 32l0 0q0 32 32 32ZM0 576m32 0l448 0q32 0 32-32l0 0q0-32-32-32l-448 0q-32 0-32 32l0 0q0 32 32 32ZM0 384m32 0l320 0q32 0 32-32l0 0q0-32-32-32l-320 0q-32 0-32 32l0 0q0 32 32 32ZM384 192v-64H32a32 32 0 1 0 0 64H384zM0 0m32 0l640 0q32 0 32-32l0 0q0-32-32-32l-640 0q-32 0-32 32l0 0q0 32 32 32ZM672 640a352 352 0 1 0 0-704 352 352 0 0 0 0 704z m0-64a288 288 0 1 1 0-576 288 288 0 0 1 0 576zM791.296 214.784c10.752 0 21.504-10.112 21.504-20.288 0-10.112-10.752-20.224-21.504-20.224h-107.392v-70.848c0-10.112-10.752-20.224-21.504-20.224s-21.504 10.112-21.504 20.224v70.848H533.504c-10.752 0-21.504 10.112-21.504 20.224 0 10.176 10.752 20.288 21.504 20.288h107.392v55.68H533.504c-10.752 0-21.504 10.112-21.504 20.224s10.752 20.224 21.504 20.224h112.768l-5.376 5.12-85.952 96.064c-10.688 5.12-10.688 20.288 0 30.4 10.752 10.112 26.88 5.056 32.256-5.12L662.4 356.48l75.2 80.96c10.752 10.112 21.504 10.112 32.256 5.056 10.688-10.112 10.688-20.224 5.376-30.4L689.28 315.968l-5.376-5.056h107.392c10.752 0 21.504-10.112 21.504-20.224s-10.752-20.224-21.504-20.224h-107.392v-55.68h107.392z"  horiz-adv-x="1024" />

    
    <glyph glyph-name="quanxianguanli" unicode="&#58897;" d="M869.76 406.592a136.448 136.448 0 0 1-136.256-136.32c0-34.432 12.864-65.728 33.92-89.792l-74.88-74.88-38.208 38.016a35.584 35.584 0 0 1-50.112-50.432l38.08-37.888-37.248-37.248-81.6 81.664a35.52 35.52 0 1 1-50.24-50.304l81.6-81.664-35.008-35.072a35.584 35.584 0 0 1 50.24-50.24l257.856 258.048a136.448 136.448 0 0 1 178.048 129.728c0 75.2-61.056 136.32-136.192 136.32z m0-201.6a65.28 65.28 0 0 0 0 130.496 65.28 65.28 0 0 0 0-130.56zM390.208-56.32H90.624c17.92 206.72 190.272 369.536 399.552 369.536 4.48 0 8.832 0.896 12.8 2.496 154.112 6.784 277.44 134.784 277.44 291.584C780.416 766.528 650.24 896 490.24 896c-160 0-290.24-129.472-290.24-288.64a292.48 292.48 0 0 1 138.496-248.704 476.416 476.416 0 0 1-320.448-450.56c0-19.584 15.936-35.52 35.52-35.52h336.64a35.584 35.584 0 0 1 0 71.104zM271.04 607.36c0 119.936 98.304 217.536 219.136 217.536s219.2-97.6 219.2-217.6c0-121.92-98.368-221.12-219.2-221.12s-219.136 99.2-219.136 221.12z"  horiz-adv-x="1024" />

    
    <glyph glyph-name="tongyifuhe" unicode="&#58902;" d="M459.648 491.136a128 128 0 1 0 104.704 0L635.776 384H704a64 64 0 0 0 64-64v-64a64 64 0 0 0-64-64H320a64 64 0 0 0-64 64V320a64 64 0 0 0 64 64h68.224l71.424 107.136zM465.152 384h93.696L512 454.336 465.152 384zM256 896h512a192 192 0 0 0 192-192v-640a192 192 0 0 0-192-192H256a192 192 0 0 0-192 192V704a192 192 0 0 0 192 192z m0-64a128 128 0 0 1-128-128v-640a128 128 0 0 1 128-128h512a128 128 0 0 1 128 128V704a128 128 0 0 1-128 128H256z m256-288a64 64 0 1 1 0 128 64 64 0 0 1 0-128zM320 320v-64h384V320H320z m-32-224h448a32 32 0 1 0 0-64h-448a32 32 0 1 0 0 64z"  horiz-adv-x="1024" />

    
    <glyph glyph-name="renminbikuajingzhifu" unicode="&#58923;" d="M855.296 86.784c10.752 0 21.504-10.112 21.504-20.288 0-10.112-10.752-20.224-21.504-20.224h-107.392v-70.848c0-10.112-10.752-20.224-21.504-20.224s-21.504 10.112-21.504 20.224v70.848H597.504c-10.752 0-21.504 10.112-21.504 20.224 0 10.176 10.752 20.288 21.504 20.288h107.392v55.68H597.504c-10.752 0-21.504 10.112-21.504 20.224s10.752 20.224 21.504 20.224h112.768l-5.376 5.12-85.952 96.064c-10.688 5.12-10.688 20.288 0 30.4 10.752 10.112 26.88 5.056 32.256-5.12l75.2-80.896 75.2 80.96c10.752 10.112 21.504 10.112 32.256 5.056 10.688-10.112 10.688-20.224 5.376-30.4l-85.952-96.128-5.376-5.056h107.392c10.752 0 21.504-10.112 21.504-20.224s-10.752-20.224-21.504-20.224h-107.392v-55.68h107.392zM667.776 450.88c-53.12 2.112-87.744 13.696-108.48 36.096-18.112 19.648-26.624 49.6-36.608 84.352-8.384 29.376-17.216 59.904-31.872 83.968-13.504 22.08-23.104 59.136 7.616 110.528 16.192 27.072 36.864 46.4 37.888 47.296a26.88 26.88 0 1 0 36.48-39.552c-15.104-14.08-54.08-60.864-36.096-90.24 18.496-30.336 28.672-65.856 37.696-97.28 7.424-25.856 14.976-52.48 24.384-62.656 6.336-6.912 25.408-18.368 81.984-19.2 42.304-0.512 91.2 5.184 130.56 9.792 31.744 3.712 56.896 6.592 73.472 6.016 14.912-0.64 26.432-12.992 25.792-27.904a26.752 26.752 0 0 0-27.904-25.792c-12.288 0.512-38.016-2.56-64.96-5.632-40.832-4.8-91.648-10.56-137.344-10.176l-12.608 0.384zM449.28-72.96a453.376 453.376 0 0 0-223.36 68.032 454.592 454.592 0 0 0-128.512 119.04 455.68 455.68 0 0 0-74.432 158.72 452.352 452.352 0 0 0-8.192 181.376c9.536 60.992 30.592 118.4 62.912 170.368a454.592 454.592 0 0 0 119.104 128.512A456.32 456.32 0 0 0 536.896 835.84a455.808 455.808 0 0 0 289.024-168.96 455.872 455.872 0 0 0 96.64-318.336 26.88 26.88 0 1 0-53.568 4.224c16.384 208.896-133.12 397.568-340.288 429.824a403.84 403.84 0 0 1-460.8-336.512 403.968 403.968 0 0 1 499.072-452.992 27.008 27.008 0 0 0 32.832-19.328 27.008 27.008 0 0 0-19.328-32.768 457.6 457.6 0 0 0-131.2-13.952zM311.808 85.12a76.608 76.608 0 0 0-24.128 5.12c-45.44 17.92-53.312 80.832-58.56 122.688a411.456 411.456 0 0 1-2.816 20.096l-1.984 11.2c-4.224 23.68-6.848 38.08-11.2 43.52-4.736 5.952-19.008 12.672-42.88 23.872l-15.36 6.912c-28.992 12.864-56.32 25.088-67.392 54.4-8.192 21.888-4.608 48 11.2 82.048 9.92 21.44 35.52 47.616 65.28 66.752 38.016 24.32 74.24 31.68 101.952 20.48l0.192-0.128 73.792-30.464c0.768-0.384 1.728-0.704 2.368-1.088 52.8-28.16 119.936-82.432 135.04-142.528 9.6-38.208-14.4-106.816-21.888-126.912-10.112-26.88-38.144-93.184-79.936-129.92-24-20.992-45.888-26.752-63.68-26.048zM239.104 493.632c-11.392 0.448-28.48-5.824-46.208-17.152-24.704-15.808-41.472-35.392-45.568-44.096-12.416-26.752-10.88-37.312-9.6-40.576 2.944-8.192 20.48-15.936 38.848-24.128 5.248-2.304 10.624-4.672 16.256-7.36h0.064c31.936-14.912 49.6-23.296 62.208-39.104 12.8-16.192 16.064-34.56 22.016-67.584l1.92-11.136c1.28-6.72 2.24-14.592 3.2-22.912 2.176-16.96 4.864-38.08 10.24-55.04 4.288-13.44 9.728-22.4 14.848-24.448 3.264-1.408 13.44-5.376 32.384 11.392 22.656 20.032 46.976 60.48 65.088 108.48 18.176 48.32 22.72 84.48 20.096 94.848-9.472 37.888-60.928 82.688-107.072 107.712l-72.448 29.888a19.072 19.072 0 0 1-6.272 1.216z"  horiz-adv-x="1024" />

    
    <glyph glyph-name="zhifu" unicode="&#58924;" d="M421.12 354.752A257.664 257.664 0 0 1 561.984 281.6c13.248-2.112 26.56-3.2 39.936-3.2a254.016 254.016 0 0 1 151.232 50.688 276.736 276.736 0 0 1 94.528 129.792 288.832 288.832 0 0 1 6.016 169.472A277.952 277.952 0 0 1 768 765.632a256.256 256.256 0 0 1-145.856 61.888 252.16 252.16 0 0 1-155.52-38.848 273.216 273.216 0 0 1-103.04-121.792 289.088 289.088 0 0 1-18.176-168.448c10.496-54.336 36.8-104.32 75.584-143.68z m-16.512 240.832c16.192 83.2 81.6 153.152 166.336 167.232a193.28 193.28 0 0 0 147.52-36.672c33.6-25.088 59.008-60.8 72.704-100.288 28.608-82.752 4.992-178.56-61.44-236.224a195.84 195.84 0 0 0-112.896-47.68 194.432 194.432 0 0 0-118.592 29.76c-73.984 46.912-110.208 138.624-93.632 223.872zM125.44 228.8c0 13.952 2.496 31.36-6.848 42.88a31.36 31.36 0 0 1-24.32 11.392 31.36 31.36 0 0 1-29.12-31.616v-240.512c0-12.608 5.888-24.32 17.728-29.888a30.336 30.336 0 0 1 41.984 22.144c0.832 4.48 0.64 9.216 0.64 13.76v211.84zM956.032 227.52a99.84 99.84 0 0 1-12.672 28.16 25.088 25.088 0 0 1-2.368 3.648c-13.952 20.16-33.856 35.968-58.624 39.552-26.432 3.84-52.16-6.144-74.304-19.84-12.8-7.936-24.704-17.216-37.504-25.088a12092.736 12092.736 0 0 0-118.4-70.208l-9.792-5.76c-3.648-2.112-7.68-5.568-11.776-6.848a3.328 3.328 0 0 0-2.624 0 32.832 32.832 0 0 0-4.992 2.304l-58.368 26.88-91.008 41.92-85.376 39.296c-13.76 6.4-27.52 12.8-41.408 19.136-13.632 6.144-27.2 6.4-41.6 4.096l-42.624-6.848-44.16-7.04c-14.336-2.368-27.328-6.784-36.736-18.752-14.016-17.728-10.368-43.136-10.368-64.384v-170.112c0-14.528 3.84-28.032 14.592-38.4 8.32-8 19.2-12.736 30.72-13.376 4.48-0.256 8.96 0 13.44 0h42.048c9.984 0 19.84 0.448 29.952-0.32 56.256-4.352 108.736-27.2 163.712-38.08 30.72-6.08 62.464-9.728 93.824-6.784 28.032 2.56 54.208 10.88 78.336 25.408 29.888 18.112 59.968 35.84 89.984 53.696a46160.384 46160.384 0 0 0 172.096 101.248c9.664 5.696 19.072 11.328 27.52 18.88 16.448 14.72 28.288 34.368 30.848 56.512a82.816 82.816 0 0 1-2.368 31.104z m-57.728-25.28v-0.128c-3.968-13.952-18.432-20.608-30.016-27.392l-35.968-21.12a66081.28 66081.28 0 0 1-186.368-110.016l-25.728-15.36c-8-4.8-15.744-10.048-24.128-14.08-28.736-13.76-62.848-13.056-93.696-8.96-32.64 4.288-64.64 13.184-96.192 22.592-18.304 5.504-36.48 10.88-55.296 14.528a395.84 395.84 0 0 1-60.352 6.784c-8.96 0.32-17.92-0.256-26.88-0.256h-32v180.416l80 12.8c2.88 0.512 6.912 1.984 9.856 1.408a18.24 18.24 0 0 0 3.392-1.6l22.848-10.496 87.68-40.32 97.088-44.8 35.2-16.256 11.52-5.248a36.224 36.224 0 0 0 1.6-0.832l-8.384-7.296c-2.304-2.048-3.648-3.2-6.464-1.92l-23.296 9.856-77.44 33.024-24.128 10.304c-14.208 6.08-30.592 3.072-39.232-10.688-10.048-16.192-3.84-38.4 13.504-46.4 5.76-2.688 11.584-4.992 17.408-7.424l75.968-32.448 29.184-12.416c11.328-4.8 22.656-8.64 35.2-7.552 15.68 1.408 28.16 8.64 39.744 18.688l28.224 24.704 27.072 23.68c3.2 2.816 6.016 6.336 9.664 8.448l29.12 17.088c33.6 19.712 67.392 39.232 100.48 59.904 16.128 10.176 30.848 23.296 48.896 30.08 6.464 2.56 13.76 4.288 20.608 2.048 6.784-2.24 11.968-8.32 15.744-14.272 3.52-5.504 7.168-12.48 5.568-19.072zM631.424 527.424v9.408c16.704 0 33.472-0.32 50.176 0a32 32 0 0 1 30.08 22.656 32 32 0 0 1-19.968 38.912 62.528 62.528 0 0 1-23.04 1.984l21.632 22.784c3.328 3.456 6.72 6.848 9.92 10.432a33.152 33.152 0 0 1 6.336 34.944 30.208 30.208 0 0 1-31.232 18.816 32.256 32.256 0 0 1-19.584-10.88c-10.176-10.624-20.352-21.312-30.464-32.064l-25.28-26.688-53.632 56.512c-3.776 4.032-7.36 8-12.48 10.432a29.568 29.568 0 0 1-35.584-8 33.024 33.024 0 0 1-4.096-35.008c2.688-5.632 7.296-9.856 11.52-14.336l25.6-26.944a62.784 62.784 0 0 1-18.752-1.408 31.68 31.68 0 0 1 7.424-62.08c8.96-0.384 17.92 0 26.816 0h24.192v-9.472H541.44c-11.456 0-24.768 1.92-35.2-3.712a32 32 0 0 1-6.144-51.52c10.432-9.216 22.912-8 35.712-8h35.2v-22.272c0-10.752-0.96-21.632 5.888-30.912a30.528 30.528 0 0 1 44.672-4.416c9.472 8.448 9.856 19.712 9.856 31.36v26.24h42.368c7.232 0 13.952-0.256 20.736 2.816a31.808 31.808 0 0 1 18.24 32.192 32.128 32.128 0 0 1-29.952 28.224h-51.392z"  horiz-adv-x="1024" />

    
    <glyph glyph-name="suoping" unicode="&#59142;" d="M512 896a227.555556 227.555556 0 0 0 227.271111-216.177778L739.555556 668.444444v-113.777777h113.777777a113.777778 113.777778 0 0 0 113.777778-113.777778v-455.111111a113.777778 113.777778 0 0 0-113.777778-113.777778H170.666667a113.777778 113.777778 0 0 0-113.777778 113.777778V440.888889a113.777778 113.777778 0 0 0 113.777778 113.777778h113.777777V668.444444l0.284445 11.377778A227.555556 227.555556 0 0 0 512 896z m341.333333-432.355556H170.666667a22.755556 22.755556 0 0 1-22.300445-18.204444L147.911111 440.888889v-455.111111a22.755556 22.755556 0 0 1 18.204445-22.300445L170.666667-36.977778h682.666666a22.755556 22.755556 0 0 1 22.300445 18.204445L876.088889-14.222222V440.888889a22.755556 22.755556 0 0 1-22.755556 22.755555z m-339.512889-113.777777a75.776 75.776 0 0 0 32.256-144.327111v-112.184889a17.635556 17.635556 0 0 0-17.408-17.408h-29.696a17.237333 17.237333 0 0 0-17.408 17.408l-0.056888 112.298666-5.575112 2.844445a75.776 75.776 0 0 0-37.432888 57.514666l-0.455112 8.078223c0 41.870222 33.905778 75.776 75.776 75.776zM512 804.977778a136.533333 136.533333 0 0 1-135.281778-117.987556l-0.910222-9.216L375.466667 668.444444v-113.777777h273.066666V668.444444l-0.341333 9.329778A136.533333 136.533333 0 0 1 512 804.977778z"  horiz-adv-x="1024" />

    
    <glyph glyph-name="zhongzuomoushiduan" unicode="&#59140;" d="M68.24128 640.64c141.568 244.544 455.04 328 700.8 186.432l14.016-8.384 21.184 36.736a15.872 15.872 0 0 0 28.16-1.792l51.968-121.408a15.744 15.744 0 0 0-12.608-21.824l-129.792-15.168a15.744 15.744 0 0 0-16.96 23.296l21.248 36.8a441.664 441.664 0 0 1-339.776 54.528A438.4 438.4 0 0 1 131.85728 603.968c-120.832-209.856-48.448-478.272 161.92-600a440.064 440.064 0 0 1 265.728-56.768l-8.512-0.64a37.12 37.12 0 0 0 50.88-34.496c0-20.48-16.64-37.12-37.12-37.12l4.416 0.32a507.136 507.136 0 0 0-292.16 54.4l-19.84 10.88c-245.44 142.08-329.92 455.296-188.928 700.16z m631.68-657.6a37.12 37.12 0 1 0 0-74.368 37.12 37.12 0 0 0 0 74.368z m128.384 81.088a37.12 37.12 0 1 0 0-74.304 37.12 37.12 0 0 0 0 74.304z m94.656 114.944a37.12 37.12 0 1 0 0-74.368 37.12 37.12 0 0 0 0 74.368zM494.92928 719.744c20.992 0 35.008-13.952 35.008-34.944v-266.368l214.592-213.696c7.04-7.04 10.752-17.728 10.752-24.704 0-7.04-3.776-17.728-10.752-24.704a38.72 38.72 0 0 0-24.704-10.752 38.72 38.72 0 0 0-24.768 10.752L470.67328 379.712c-3.2 3.712-3.2 6.976-6.976 10.688-3.712 3.264-3.712 10.24-3.712 14.016v280.32c0 21.056 13.952 35.008 34.944 35.008z m482.112-405.504a37.12 37.12 0 1 0 0-74.368 37.12 37.12 0 0 0 0 74.368z m10.112 135.168a37.12 37.12 0 1 0 0-74.368 37.12 37.12 0 0 0 0 74.368z m-16.896 135.168a37.12 37.12 0 1 0 0-74.368 37.12 37.12 0 0 0 0 74.368z"  horiz-adv-x="1024" />

    
    <glyph glyph-name="shoudongzhongzuo" unicode="&#59141;" d="M150.267861 896l9.535666-0.127996h710.375137C936.928328 896.255991 991.518417 843.201848 991.966401 777.412151V-10.208283c-2.815901-67.005655-59.70991-119.355823-127.803527-117.755878H634.602909c-22.207223 0-39.038634 13.567525-39.038634 35.390761 0 21.759238 17.599384 35.390761 39.742609 35.390761h228.85599c31.102911 0 56.254031 17.1514 56.254031 46.974356V777.412151a9.343673 9.343673 0 0 0 0 4.351847c0 25.535106-24.255151 42.046528-56.254031 42.046529H146.747984l-2.30392 0.063997c-27.327044 0-41.470549-17.599384-41.470548-46.462373v-313.013045c0-21.759238-11.903583-38.398656-34.046808-38.398656H66.55879c-22.143225 0-34.622788 16.639418-34.622788 38.398656v318.068868C35.583875 848.449664 92.797872 899.199888 159.803527 895.872004z m407.345743-477.679281L715.240087 256.022399a39.486618 39.486618 0 0 0 0-55.614053l-156.154535-171.066013a38.782643 38.782643 0 0 0-54.84608 0 40.254591 40.254591 0 0 0 0 55.614054l97.916573 106.620268H167.163269c-32.318869 0-48.318309-16.319429-48.318309-45.246417v-155.70655c0-29.822956 20.479283-46.718365 48.318309-46.718365h233.271836c21.759238 0 38.014669-12.671556 38.014669-34.494792 0-21.759238-16.191433-36.542721-38.014669-36.542721H167.099272a117.755879 117.755879 0 0 0-119.931803 115.515957v157.946471a116.987905 116.987905 0 0 0 115.515957 118.459854h438.064668L501.99955 363.538636a38.782643 38.782643 0 0 0 0 54.846081 40.254591 40.254591 0 0 0 55.614054 0z"  horiz-adv-x="1024" />

    
    <glyph glyph-name="dayin1" unicode="&#59139;" d="M896 672.256h-63.488V896h-640v-223.744H128a128 128 0 0 1-128-128V128h191.488v-256h640v256H1024V543.744a128.128 128.128 0 0 1-128 128.512zM256 832h512v-159.744H256V832z m512-896H256v287.744h512V-64z m192 256h-128V287.744H192V192H64V543.744a64 64 0 0 0 64 64h768a64 64 0 0 0 64-64V192zM512 512H225.28c-17.408 0-33.28-13.824-33.28-31.232A31.808 31.808 0 0 1 223.744 448h286.72c17.408 0 33.28 13.824 33.28 31.232A31.808 31.808 0 0 1 512 512z"  horiz-adv-x="1024" />

    
    <glyph glyph-name="panding" unicode="&#59138;" d="M404.477822 841.565241a32.295211 32.295211 0 0 1 0 45.134526 31.271216 31.271216 0 0 1-44.504376 0 32.295211 32.295211 0 0 1 0-45.134526 31.271216 31.271216 0 0 1 44.504376 0z m378.720422-383.997933a32.295211 32.295211 0 0 1 0-45.134526 31.271216 31.271216 0 0 1 44.583145 0 32.295211 32.295211 0 0 1 0 45.134526 31.271216 31.271216 0 0 1-44.583145 0z m423.382336-429.053689a32.295211 32.295211 0 0 1 0-45.213295 31.271216 31.271216 0 0 1 44.504376 0 32.295211 32.295211 0 0 1 0 45.213295 31.271216 31.271216 0 0 1-44.504376 0z m-272.776377 321.534268l228.114464-231.265216a32.295211 32.295211 0 0 0 0-45.134526 31.271216 31.271216 0 0 0-44.504376 0l-228.193233 231.265216-154.071786-156.198543-209.997638-212.990853L315.075227 148.714818 0 468.04356l210.076407 212.990853 315.075227-319.48628L679.22342 517.904214 449.060967 751.059882a32.295211 32.295211 0 0 0 0 45.213295 31.271216 31.271216 0 0 0 44.583144 0l230.162453-233.391974L1050.303268 893.867728 1260.300906 681.034413l-326.496703-330.986526zM690.566128 193.849344L1171.292155 680.955644l-120.988887 122.564263-480.489721-487.185069a62.463664 62.463664 0 0 0-89.166289 0L210.076407 590.686592 89.008751 468.04356l270.570851-274.272985 165.414494-167.777558 165.493263 167.777558z"  horiz-adv-x="1260" />

    
    <glyph glyph-name="youxianji" unicode="&#59136;" d="M841.984 470.4H482.816c-16.96 0-30.72-15.872-30.72-35.584 0-19.584 13.76-35.52 30.72-35.52h359.168c16.832 0 30.592 15.936 30.592 35.52 0 19.648-13.76 35.584-30.592 35.584z m151.616 216.96H482.816c-16.96 0-30.72-15.936-30.72-35.52 0-19.648 13.76-35.584 30.72-35.584h510.592c17.024 0 30.592 15.936 30.592 35.584 0 19.584-13.632 35.52-30.4 35.52z m-242.56-434.048H482.752c-16.96 0-30.72-15.808-30.72-35.52 0-19.648 13.76-35.584 30.72-35.584h268.16c16.96 0 30.592 15.936 30.592 35.584 0 19.712-13.632 35.52-30.592 35.52z m-106.112-201.6H482.88c-16.96 0-30.72-16-30.72-35.584 0-19.712 13.76-35.52 30.72-35.52h162.048c16.96 0 30.656 15.808 30.656 35.52 0 19.52-13.696 35.584-30.656 35.584zM0 669.824h168.704V-128h61.568V669.824h168.192L199.168 896 0 669.824z"  horiz-adv-x="1024" />

    
    <glyph glyph-name="yulan" unicode="&#59137;" d="M567.68 446.72c-84.48 60.16-177.28-33.472-117.76-118.4 1.664-2.56 3.84-4.736 6.4-6.528 84.352-60.352 177.472 33.216 117.76 118.4a28.48 28.48 0 0 1-6.4 6.528zM916.8 384.256s-181.056 244.736-404.736 244.736c-223.744 0-404.8-244.736-404.8-244.736S288.384 139.52 512 139.52c223.36 0 404.736 244.736 404.736 244.736h0.064z m-404.736-163.2c-178.816 0-323.84 163.2-323.84 163.2S333.248 547.456 512 547.456s323.776-163.2 323.776-163.2-144.896-163.2-323.712-163.2zM354.56 895.232H93.44C42.304 895.168 0.512 853.12 0.512 801.28v-258.56a34.304 34.304 0 0 1 68.48 0V801.6a24.32 24.32 0 0 0 24.32 24.448h260.928a34.368 34.368 0 0 1 34.304 34.56 34.112 34.112 0 0 1-33.728 34.56h-0.32z m0-952.768H93.44a24.32 24.32 0 0 0-24.192 24.384v258.56a34.368 34.368 0 0 1-34.24 34.56H35.008a34.368 34.368 0 0 1-34.304-34.432v-258.688c0-51.584 41.6-93.824 92.992-93.824h261.056a34.496 34.496 0 0 1 34.304 34.624 35.008 35.008 0 0 1-34.56 34.816zM930.56 895.168h-260.928a34.368 34.368 0 0 1-34.304-34.496v-0.064c0-19.136 15.36-34.56 34.304-34.56h260.928a24.32 24.32 0 0 0 24.256-24.448v-258.56a34.304 34.304 0 0 1 68.608 0v258.56A93.12 93.12 0 0 1 930.752 895.168h-0.192z m58.56-635.136a34.368 34.368 0 0 1-34.304-34.56v-258.56a24.32 24.32 0 0 0-24.256-24.448h-260.928a34.368 34.368 0 0 1-34.304-34.432v-0.128c0-19.072 15.36-34.56 34.304-34.56h260.928c51.2 0 92.992 41.92 92.992 93.824v258.304a34.56 34.56 0 0 1-34.432 34.56z"  horiz-adv-x="1024" />

    
    <glyph glyph-name="tiaoguo1" unicode="&#59128;" d="M320-64v-64H192v64h128z m-192 0v-64H0v64h128z m320 64v-128H384v128h64z m512.832 896l-109.44-105.984C956.48 694.336 1024 546.048 1024 379.52c0-243.84-144.768-448.64-340.608-506.24-22.016-6.464-43.392 12.8-43.392 39.04 0 18.56 10.88 34.56 26.304 39.104 65.984 19.392 126.464 58.88 175.808 115.84 72.32 83.392 112.128 194.304 112.128 312.32 0 117.888-39.808 228.8-112.128 312.256a409.856 409.856 0 0 1-45.568 45.056L640 585.152V896h320.832zM64 128v-128H0v128h64z m384 64v-128H384v128h64zM64 320v-128H0V320h64z m192 0v-64H128V320h128z m192 0v-64H320V320h128z m0 576v-448H0V896h448zM384 832H64v-320h320V832z"  horiz-adv-x="1024" />

    
    <glyph glyph-name="yingwen" unicode="&#59135;" d="M903.616 896C969.984 896 1024 841.984 1024 775.616V-7.68A120.576 120.576 0 0 0 903.552-128H120.384A120.512 120.512 0 0 0 0-7.616V775.68C0 841.984 54.016 896 120.384 896H903.68z m0-69.12H120.32a51.328 51.328 0 0 1-51.264-51.264V-7.68c0-28.288 23.04-51.264 51.264-51.264H903.68c28.288 0 51.264 23.04 51.264 51.264V775.68a51.392 51.392 0 0 1-51.264 51.264zM501.952 608v-58.56H268.928v-115.904h218.944v-58.56H268.928v-126.528h242.944v-58.496H200.384V608h301.568z m224.832-107.136c75.52 0 113.6-40.96 113.6-124.16v-186.752h-66.752V370.88c0 49.728-22.848 74.368-68.48 74.368a61.12 61.12 0 0 1-43.328-17.6c-14.08-12.864-22.272-31.616-24.64-55.68v-182.016H570.432v302.72h66.752v-35.2c9.408 11.264 19.84 20.672 31.232 27.52l8.64 4.736c15.424 7.616 32.512 11.392 49.728 11.136z"  horiz-adv-x="1024" />

    
    <glyph glyph-name="duishou" unicode="&#59121;" d="M186.497489-127.872016c23.549056 0 39.227097 15.67804 39.227097 39.227097V852.869391c0 23.485064-15.67804 39.227097-39.227097 39.227097S147.206401 876.354456 147.206401 852.869391v-941.51431c0-23.549056 15.67804-39.227097 39.227096-39.227097zM359.019924 413.500312L853.358132 884.225472c15.67804 15.67804 47.098113 15.67804 62.776153 0a37.947257 37.947257 0 0 0 0-54.905137L453.21615 382.08024l462.918135-439.369079a37.947257 37.947257 0 0 0 0-54.905137c-15.67804-15.67804-47.098113-15.67804-62.712161 0L359.019924 358.595176c-15.67804 7.807024-15.67804 39.227097 0 54.905136z"  horiz-adv-x="1024" />

    
    <glyph glyph-name="duiwei" unicode="&#59124;" d="M837.361654-127.552196c-23.541701 0-39.214844 15.673143-39.214843 39.214844V852.882864c0 23.477728 15.673143 39.214844 39.214843 39.214843s39.214844-15.737115 39.214844-39.214843v-941.220216c0-23.541701-15.673143-39.214844-39.214844-39.214844zM664.893109 413.651028L170.709315 884.22915C155.036172 899.902293 123.625914 899.902293 107.952771 884.22915a37.935403 37.935403 0 0 1 0-54.887987l462.773536-447.100393-462.773536-439.231836a37.935403 37.935403 0 0 1 0-54.887987c15.673143-15.673143 47.083401-15.673143 62.692572 0L664.893109 358.763041c15.673143 7.804585 15.673143 39.214844 0 54.887987z"  horiz-adv-x="1024" />

    
    <glyph glyph-name="erchang" unicode="&#59125;" d="M873.198933 896c36.590933 0 66.286933-29.696 66.286934-66.286933V542.378667a39.799467 39.799467 0 1 0-79.530667 0V789.9136a26.487467 26.487467 0 0 1-26.4192 26.555733H106.0864a26.487467 26.487467 0 0 1-26.555733-26.4192v-811.963733c0-14.677333 11.946667-26.555733 26.624-26.555733h366.045866a39.799467 39.799467 0 0 0 0-79.530667H66.218667A66.286933 66.286933 0 0 0 0-61.713067V829.781333C0 866.304 29.696 896 66.286933 896h806.912z m-24.1664-477.866667c51.473067-0.477867 93.252267-15.36 125.269334-44.578133 32.5632-29.013333 49.152-65.7408 49.698133-110.318933 0-35.703467-12.0832-67.3792-36.181333-95.163734l-192.580267-218.453333H1024V-128h-341.333333v73.181867l233.745066 264.533333c9.0112 10.6496 15.1552 20.548267 18.432 29.696a100.352 100.352 0 0 1 3.2768 24.576 75.776 75.776 0 0 1-20.8896 53.111467c-14.5408 15.086933-35.089067 22.869333-61.6448 23.415466-23.552 0-43.144533-6.826667-58.709333-20.48-16.1792-13.653333-25.736533-32.768-28.740267-57.5488H682.666667c2.184533 45.056 18.909867 82.3296 50.107733 111.8208 31.470933 28.672 70.314667 43.349333 116.258133 43.8272zM509.201067 272.520533c20.411733 0 36.932267-16.384 36.932266-36.4544a36.6592 36.6592 0 0 0-36.864-36.386133H241.664A36.6592 36.6592 0 0 0 204.8 236.066133c0 20.138667 16.520533 36.4544 36.864 36.4544h267.605333z m2.730666 209.3056c18.8416 0 34.133333-16.247467 34.133334-36.386133 0-20.138667-15.291733-36.386133-34.133334-36.386133H238.933333c-18.8416 0-34.133333 16.247467-34.133333 36.386133 0 20.138667 15.291733 36.386133 34.133333 36.386133h273.066667zM703.146667 691.2c18.8416 0 34.133333-16.315733 34.133333-36.386133 0-20.138667-15.291733-36.4544-34.133333-36.4544h-477.866667c-18.8416 0-34.133333 16.384-34.133333 36.4544 0 20.0704 15.291733 36.386133 34.133333 36.386133h477.866667z"  horiz-adv-x="1024" />

    
    <glyph glyph-name="huancun" unicode="&#59126;" d="M112.256-107.776h799.488a92.16 92.16 0 0 1 92.224 92.224V445.824a92.16 92.16 0 0 1-92.096 92.224H665.728v-0.128a30.72 30.72 0 1 1 0-61.44l0.896 0.128h214.4a61.44 61.44 0 0 0 61.504-61.504v-399.872c0-33.92-27.52-61.504-61.504-61.504H142.976a61.504 61.504 0 0 0-61.44 61.568V415.104c0 33.984 27.52 61.44 61.504 61.44h214.336l0.896-0.128a30.72 30.72 0 1 1 0 61.44v0.128H112.256A92.16 92.16 0 0 1 20.032 445.888v-461.376c0-50.944 41.28-92.288 92.224-92.288zM542.72 278.08V844.992a30.72 30.72 0 1 1-61.44 0v-566.912L384.896 374.528a33.408 33.408 0 0 1-47.168-47.232L486.4 178.624a32.896 32.896 0 0 1 25.6-9.408 32.64 32.64 0 0 1 25.6 9.408l148.736 148.608a33.472 33.472 0 0 1-47.232 47.232L542.72 278.08z"  horiz-adv-x="1024" />

    
    <glyph glyph-name="neiqian" unicode="&#59127;" d="M854.656 896C912.768 896 960 841.984 960 775.616V-7.68C960-73.984 912.704-128 854.656-128H169.344C111.232-128 64-73.984 64-7.616V775.68C64 841.984 111.296 896 169.344 896h685.312z m1.92-69.12H177.6c-24.448 0-44.416-23.04-44.416-51.264V-7.68c0-28.288 19.968-51.264 44.48-51.264h679.04c24.512 0 44.48 23.04 44.48 51.264V775.68c0 28.288-19.968 51.264-44.48 51.264z m-316.16-663.04c16.832 0 31.36-13.12 31.36-29.952a30.528 30.528 0 0 0-31.36-30.016H296.32a30.528 30.528 0 0 0-31.36 30.08c0 16.768 13.952 29.952 31.36 29.952z m195.648 144.64c17.344 0 31.936-13.632 31.936-29.952a31.04 31.04 0 0 0-31.936-30.016H288c-17.408 0-32 13.184-32 30.016 0 16.32 13.952 30.016 32 30.016zM643.008 688.96a33.344 33.344 0 0 0 43.712 11.072l4.736-3.2c11.52-9.28 15.04-25.216 7.04-37.824L538.688 399.552a24.704 24.704 0 0 0-3.84-5.76s-0.64 0-0.64-0.512l-1.088-1.024s0-0.64-0.64-0.64a32.256 32.256 0 0 0-11.2-5.76l-0.512-0.384-0.576-0.064c-1.088-0.64-1.088-0.64-1.728-0.64h-14.528c-0.576 0.576-0.576 0.576-1.152 0.576-1.088 0-1.088 0.512-1.728 0.512a28.096 28.096 0 0 0-11.2 5.76v0.32l-0.448 0.256-0.64 0.512-0.64 0.576a35.2 35.2 0 0 0-4.416 6.272L322.752 658.944c-8.96 14.208-3.392 32.64 11.712 40.96a33.344 33.344 0 0 0 43.84-11.008l132.288-215.168z"  horiz-adv-x="1024" />

    
    <glyph glyph-name="xiayi" unicode="&#59129;" d="M834.112 896v-768.512H1024L800-128 576 127.488h191.232V896h66.88zM320-64v-64H192v64h128z m-192 0v-64H0v64h128z m320 64v-128H384v128h64z m-384 128v-128H0v128h64z m384 64v-128H384v128h64zM64 320v-128H0V320h64z m192 0v-64H128V320h128z m192 0v-64H320V320h128z m0 576v-448H0V896h448zM384 832H64v-320h320V832z"  horiz-adv-x="1024" />

    
    <glyph glyph-name="tianjiawenjian" unicode="&#59130;" d="M400.520533 896L568.661333 727.927467H1092.266667v-714.1376c0-69.632-56.456533-126.020267-126.020267-126.020267H126.020267c-66.218667 0-120.6272 51.2-125.610667 116.189867L0 13.789867V769.979733C0 839.611733 56.456533 896 126.020267 896h274.500266z m-48.059733-68.608h-240.981333a41.984 41.984 0 0 1-41.984-41.984v-784.861867c0-23.210667 18.773333-41.984 41.984-41.984H981.674667c23.210667 0 41.984 18.773333 41.984 41.984V658.568533H523.605333L352.4608 827.392z m213.128533-284.125867c19.387733 0 35.293867-17.885867 35.293867-39.7312V365.568h146.773333c21.9136 0 39.799467-15.9744 39.799467-35.362133 0-19.456-17.885867-35.362133-39.7312-35.362134H600.746667l0.068266-146.773333c0-21.845333-15.906133-39.799467-35.293866-39.799467-19.456 0-35.362133 17.885867-35.362134 39.7312V294.912H392.192c-21.845333 0-39.799467 15.837867-39.799467 35.293867 0 19.387733 17.885867 35.293867 39.799467 35.293866h137.898667l0.068266 138.0352c0 21.845333 15.906133 39.7312 35.362134 39.7312zM1092.266667 896v-68.266667H614.4V896h477.866667z"  horiz-adv-x="1092" />

    
    <glyph glyph-name="quequan" unicode="&#59131;" d="M436.992 896l13.184-0.256a263.104 263.104 0 0 0 251.264-261.568l-0.512-14.976a265.728 265.728 0 0 0-99.072-191.232l-14.848-11.008A258.56 258.56 0 0 0 448 372.992h-40.064A379.52 379.52 0 0 1 64.64-2.56l0.64-7.808c1.92-12.8 8-24.576 17.472-33.6l5.76-5.248a56.256 56.256 0 0 1 35.584-12.16h334.912a29.76 29.76 0 0 0 29.696-33.024l-0.32-5.632a32.96 32.96 0 0 0-29.44-27.968H124.8a129.28 129.28 0 0 0-88.512 36.224l-7.36 8.256A129.28 129.28 0 0 0 0-2.56l0.384 17.024a443.52 443.52 0 0 0 282.112 395.392l18.752 7.104-18.752 11.008A267.008 267.008 0 0 0 183.68 634.176l0.128 12.8A258.56 258.56 0 0 0 436.992 896z m556.352-640.128c7.04 0.64 14.08-1.6 19.712-6.336a31.232 31.232 0 0 0 2.112-45.44l-224.512-258.112c-15.872-18.24-33.408-14.72-43.648-6.208a38.208 38.208 0 0 0-8.832 5.568l-148.928 127.104c-18.56 15.808-14.784 33.152-5.952 43.2 6.848 7.808 25.152 18.112 44.992 1.152l133.44-113.92 207.36 238.464c9.856 11.264 18.304 14.08 24.32 14.528zM442.88 828.16a193.92 193.92 0 0 1-193.92-193.92l0.32-11.392a193.92 193.92 0 0 1 193.6-182.528l11.392 0.32a193.92 193.92 0 0 1-11.392 387.52z"  horiz-adv-x="1024" />

    
    <glyph glyph-name="pinshuai" unicode="&#59132;" d="M989.439382 383.93632c19.775988-1.535999 34.559978-18.815988 33.087979-38.655976l-1.919999-20.159987a509.631681 509.631681 0 0 0-159.6159-315.711803l-15.231991-13.695991A510.143681 510.143681 0 0 0 511.99968-127.99936c-101.311937 0-199.039876 29.439982-283.135823 85.311947a513.087679 513.087679 0 0 0-156.799902 164.671897v-85.951947a36.031977 36.031977 0 1 0-72.063955 0v184.063885c0 19.839988 16.12799 35.903978 36.031977 35.903978h183.935886a36.031977 36.031977 0 0 0 0-71.999955H119.999925A439.679725 439.679725 0 0 1 268.799832 17.280549l16.831989-10.687993A437.439727 437.439727 0 0 1 511.99968-55.999405a438.207726 438.207726 0 0 1 299.903813 118.079926l13.951991 13.567992a438.591726 438.591726 0 0 1 124.799922 275.071828l0.959999 5.759996A36.031977 36.031977 0 0 0 989.311382 384.00032zM511.99968 896l20.095987-0.384a509.439682 509.439682 0 0 0 262.911836-84.927947l18.879988-13.183991a512.31968 512.31968 0 0 0 138.111914-151.487906V732.096102c0 19.839988 16.19199 35.967978 36.031977 35.903978l5.887997-0.448c17.087989-2.815998 30.079981-17.663989 30.079981-35.583977v-183.999885l-0.448-5.887997a35.967978 35.967978 0 0 0-35.583977-30.079981h-183.935886a35.967978 35.967978 0 1 0 0 71.999955h99.967938A439.679725 439.679725 0 0 1 755.199528 750.720091l-16.831989 10.687993A437.439727 437.439727 0 0 1 511.99968 824.000045 438.591726 438.591726 0 0 1 212.031867 705.920119l-14.015991-13.567992a438.591726 438.591726 0 0 1-124.799922-275.071828l-0.895999-5.759996A36.031977 36.031977 0 0 0 34.559978 384.00032l-5.759996 0.959999a36.031977 36.031977 0 0 0-27.391983 37.695977l1.919999 20.159987a510.207681 510.207681 0 0 0 159.6799 315.711803l15.167991 13.631991A510.079681 510.079681 0 0 0 511.99968 896zM754.431528 408.704305H831.99948v-45.823972h-112.70393l-47.55197 181.439887-109.567931-418.687739h-44.095973L435.967728 439.488285 364.735772 167.680455h-44.159972l-58.111964 222.207861H191.99988v45.695972h105.599934l45.055972-172.223893 71.231955 271.807831h44.159973l82.111948-313.791804L649.727594 640.00016h44.095972z"  horiz-adv-x="1024" />

    
    <glyph glyph-name="sanchang" unicode="&#59133;" d="M873.198933 896c36.590933 0 66.286933-29.696 66.286934-66.286933V542.378667a39.799467 39.799467 0 1 0-79.530667 0V789.9136a26.487467 26.487467 0 0 1-26.4192 26.555733H106.0864a26.487467 26.487467 0 0 1-26.555733-26.4192v-811.963733c0-14.677333 11.946667-26.555733 26.624-26.555733h366.045866a39.799467 39.799467 0 0 0 0-79.530667H66.218667A66.286933 66.286933 0 0 0 0-61.713067V829.781333C0 866.304 29.696 896 66.286933 896h806.912z m-27.4432-477.866667c52.906667-0.477867 94.890667-16.110933 126.020267-46.762666 29.764267-30.037333 44.919467-65.399467 45.4656-106.154667 0-20.48-4.027733-40.686933-11.946667-59.733333l-5.256533-9.4208c-9.8304-15.36-24.712533-29.354667-44.6464-41.7792 24.507733-14.7456 42.1888-32.426667 53.0432-53.0432 10.308267-20.343467 15.633067-42.461867 15.5648-64.853334l-0.682667-14.813866c-3.413333-43.4176-20.0704-78.165333-49.9712-104.2432-32.699733-29.696-74.683733-44.8512-126.020266-45.329067-39.594667 0-74.683733 11.741867-105.2672 35.362133-30.5152 23.552-50.3808 57.7536-59.392 102.4h83.285333c7.509333-17.885867 18.0224-32.3584 31.5392-43.4176 13.858133-11.605333 32.1536-17.339733 55.022933-17.339733 24.507733 0 45.056 7.7824 61.8496 23.210667 17.066667 14.472533 25.8048 35.157333 26.282667 61.917866-0.477867 27.306667-9.284267 48.469333-26.282667 63.419734-16.7936 14.472533-38.024533 21.7088-63.829333 21.7088h-35.089067v68.1984h28.672c28.4672 0 50.517333 7.236267 66.218667 21.7088a69.632 69.632 0 0 1 23.552 54.545066 74.9568 74.9568 0 0 1-24.302933 55.637334c-15.701333 13.994667-35.908267 21.2992-60.6208 21.777066-17.8176 0-34.065067-5.3248-48.674134-15.837866-15.428267-10.581333-25.8048-26.965333-31.1296-49.015467h-83.285333a152.439467 152.439467 0 0 0 52.224 100.5568A158.378667 158.378667 0 0 0 845.755733 418.133333z m-336.554666-145.6128c20.411733 0 36.932267-16.384 36.932266-36.4544a36.6592 36.6592 0 0 0-36.864-36.386133H241.664A36.6592 36.6592 0 0 0 204.8 236.066133c0 20.138667 16.520533 36.4544 36.864 36.4544h267.605333z m2.730666 209.3056c18.8416 0 34.133333-16.247467 34.133334-36.386133 0-20.138667-15.291733-36.386133-34.133334-36.386133H238.933333c-18.8416 0-34.133333 16.247467-34.133333 36.386133 0 20.138667 15.291733 36.386133 34.133333 36.386133h273.066667zM703.146667 691.2c18.8416 0 34.133333-16.315733 34.133333-36.386133 0-20.138667-15.291733-36.4544-34.133333-36.4544h-477.866667c-18.8416 0-34.133333 16.384-34.133333 36.4544 0 20.0704 15.291733 36.386133 34.133333 36.386133h477.866667z"  horiz-adv-x="1024" />

    
    <glyph glyph-name="shezhi1" unicode="&#59134;" d="M512 580.928C400.448 580.928 315.072 495.616 315.072 384c0-111.552 85.376-196.864 196.928-196.864 111.616 0 196.928 85.312 196.928 196.864 0 111.616-85.312 196.928-196.928 196.928z m0-328.192A131.648 131.648 0 0 0 380.8 384c0 72.192 59.072 131.328 131.264 131.328 72.192 0 131.328-59.136 131.328-131.392A131.648 131.648 0 0 0 512 252.8zM640 896H384.128c-19.2 0-32-12.8-32-32v-121.6c-25.6-12.8-51.2-25.6-70.4-38.4l-102.4 64a33.728 33.728 0 0 1-44.8-12.8L6.72 531.328c-12.8-19.264-6.4-38.464 12.8-44.8l102.4-64v-76.992l-102.4-63.936c-19.2-6.4-25.6-25.6-12.8-44.8l127.936-224c6.4-12.8 25.6-19.2 44.8-6.4l102.4 64c19.136-12.8 44.672-32 70.272-38.4v-128c0-19.2 12.8-32 32-32H640c19.2 0 32 12.8 32 32v121.6c25.6 12.8 51.2 25.6 70.336 38.4l102.4-64c16-8.32 35.648-2.688 44.8 12.8l127.872 224c12.8 19.2 6.4 38.4-12.8 44.8l-102.336 64V422.4l102.336 64c12.8 6.4 19.2 25.664 12.8 44.8l-127.872 224c-6.464 12.864-25.664 19.264-44.8 12.864L742.208 704c-19.2 12.736-44.736 31.936-70.336 38.336v121.6c0 19.2-12.8 32.064-32 32.064zM416 832h191.872v-108.8c0-12.8 6.4-25.6 19.2-32 31.936-13.184 62.016-30.4 89.6-51.2 12.8-6.4 25.6-6.4 38.4 0l95.936 57.6 95.936-166.4-96-57.6c-12.8-12.8-19.2-25.6-12.8-38.4 0-19.2 6.4-32 6.4-51.2 0-19.2 0-32-6.4-51.2 0-12.8 6.4-25.6 12.8-32l96-57.6-96-166.4-95.936 57.6a40.768 40.768 0 0 1-38.4 0c-27.52-20.8-57.6-38.016-89.472-51.2-12.8-12.8-19.2-25.6-19.2-38.4V-64H416v108.8a35.2 35.2 0 0 1-19.2 32 407.808 407.808 0 0 0-89.536 51.2 40.768 40.768 0 0 1-38.4 0l-96-51.2-95.872 166.4 95.936 57.6c12.8 6.4 19.2 19.2 12.8 32 0 19.2-6.4 32-6.4 51.2 0 19.2 0 32 6.4 51.2 6.4 12.8 0 25.6-12.8 32l-96 57.6 96 166.4 96-57.6c12.8-6.4 25.6-6.4 38.4 0 27.52 20.8 57.6 38.016 89.472 51.2a35.2 35.2 0 0 1 19.2 32V832z"  horiz-adv-x="1024" />

    
    <glyph glyph-name="yingda" unicode="&#59123;" d="M969.408 876.352c19.456 0 35.328-15.744 35.328-35.2v-887.68a35.008 35.008 0 0 0-10.752-25.344 34.88 34.88 0 0 0-25.28-10.688l-203.52-0.064a61.504 61.504 0 0 0-112.192 35.2 61.568 61.568 0 0 0 112.128 35.328l168.896-0.064V805.952H230.72v-598.4a35.264 35.264 0 0 0-70.72 0v633.6c0 19.456 15.808 35.2 35.328 35.2h774.144zM585.792 665.984a35.2 35.2 0 0 0 28.672-20.16l230.592-494.528a35.2 35.2 0 1 0-63.872-29.696l-89.92 192.832H473.344L383.424 121.6a35.2 35.2 0 1 0-63.808 29.696l230.592 494.528a35.2 35.2 0 0 0 28.672 20.16zM54.4 525.888a35.2 35.2 0 0 0 35.2-35.2v-140.8a35.2 35.2 0 0 0-70.4 0v140.8a35.2 35.2 0 0 0 35.2 35.2z m527.936 22.144L506.24 384.832h152.192l-76.096 163.2z"  horiz-adv-x="1024" />

    
    <glyph glyph-name="riqi1" unicode="&#59105;" d="M736 896a32 32 0 0 0 32-32v-32.064h126.08c66.688 0 129.216-64.512 129.216-131.84v-701.056c0-63.36-64.64-127.04-129.152-126.08H127.808C64.256-127.04 0-62.72 0-0.96V700.096C0 771.648 64.704 832 127.808 832H256v32a32 32 0 1 0 64 0V832h384v32A32 32 0 0 0 736 896z m223.936-415.872H63.36v-479.104c0-39.296 32.832-64.96 66.24-64.96h766.912c31.04 0 63.36 31.36 63.36 64.96V480.128z m-663.68-352a36.608 36.608 0 0 0 0-73.216H186.624a36.608 36.608 0 0 0-0.384 73.216h110.08z m292.48 0a36.608 36.608 0 0 0 0-73.216H442.432a36.608 36.608 0 0 0 0 73.216h146.304z m255.936 0a36.608 36.608 0 0 0 0.384-73.216h-109.952a36.608 36.608 0 0 0-0.384 73.216h109.952zM296.32 347.392a36.608 36.608 0 0 0 0.384-73.152H186.56a36.608 36.608 0 0 0 0 73.152H296.32z m292.48 0a36.608 36.608 0 0 0 0-73.152H442.368a36.608 36.608 0 0 0 0 73.152h146.304z m255.872 0a36.608 36.608 0 0 0 0.384-73.152h-109.952a36.608 36.608 0 0 0-0.384 73.152h109.952z m-589.44 420.672H129.6c-37.248 0-65.536-29.568-65.536-63.36V544H960l-0.768 160.64C960 736.384 929.536 768 895.552 768H767.36v-63.36a32 32 0 1 0-64.064 0V768H319.36v-63.36a32 32 0 1 0-64.128 0V768z"  horiz-adv-x="1024" />

    
    <glyph glyph-name="suo" unicode="&#59111;" d="M1056.631467-31.197867c17.749333 0 35.6352-11.8784 35.6352-35.703466 0-17.8176-17.8176-35.6352-35.6352-35.6352H35.6352c-17.749333 0-35.6352 11.8784-35.6352 29.696s5.9392 35.703467 23.7568 35.703466H64.853333V794.965333C64.853333 842.410667 94.481067 884.053333 141.994667 896h487.492266c59.392 0 101.034667-41.642667 101.034667-101.034667v-832.170666h202.069333V456.226133c0 23.7568-11.8784 35.6352-35.6352 35.6352h-65.399466c-17.8176 0-29.696 11.8784-35.6352 29.764267 0 17.8176 11.8784 29.696 23.7568 35.6352h77.277866c59.392 0 101.034667-41.642667 101.034667-101.034667v-493.294933c5.9392 11.810133 5.9392 11.810133 5.9392 5.9392h52.701867z m-926.583467 0.750934h534.528V801.109333c0 23.688533-11.8784 35.498667-35.703467 35.498667H159.744c-17.8176 0-29.696-17.749333-29.696-35.498667v-831.488zM397.312 670.3104H296.277333c-17.8176 0-29.696 11.8784-35.6352 23.7568-5.9392 23.7568 11.8784 41.642667 35.6352 41.642667h201.9328c17.749333 0 29.627733-6.007467 29.627734-23.825067 5.9392-11.810133 0-29.696-11.810134-35.6352-5.9392-5.9392-17.8176-5.9392-23.7568-5.9392H397.312z m0-166.229333H296.277333c-23.7568 0-35.6352 17.749333-35.6352 41.642666 0 11.741867 17.749333 23.620267 29.696 23.620267h201.9328c17.749333 0 29.696-11.810133 29.696-35.566933 0-17.885867-11.8784-35.6352-35.6352-35.6352-17.8176 5.9392-53.4528 5.9392-89.088 5.9392z m0-267.264h100.9664c23.7568 0 41.5744-23.7568 29.627733-47.5136a32.631467 32.631467 0 0 0-29.627733-17.749334H302.2848c-17.749333 0-35.6352 17.749333-35.6352 35.566934 0 5.9392 5.9392 17.8176 11.8784 23.7568 5.9392 5.9392 11.8784 11.8784 23.7568 11.8784 29.696-5.9392 65.3312-5.9392 95.0272-5.9392z m0 101.034666H296.277333c-23.7568 0-41.642667 23.688533-29.696 47.445334 5.9392 11.8784 17.8176 23.7568 29.696 23.7568h201.9328c17.749333 0 35.566933-17.8176 35.566934-35.6352s-11.810133-29.696-35.566934-35.6352h-101.034666z"  horiz-adv-x="1092" />

    
    <glyph glyph-name="zhanghuxinzeng" unicode="&#59118;" d="M799.9975 319.9986c17.663945 0 31.9999-18.367943 31.9999-40.895872v-151.039528l151.103528-0.064c22.52793 0 40.959872-14.399955 40.959872-31.9999s-18.431942-31.9999-40.959872-31.9999h-151.039528v-151.103528c0-22.52793-14.399955-40.959872-31.9999-40.959872s-31.9999 18.431942-31.9999 40.959872v151.039528H616.958072c-22.52793 0-40.959872 14.463955-40.959872 31.9999 0 17.663945 18.431942 32.0639 40.959872 32.0639H767.9976V279.166728c0 22.52793 14.399955 40.959872 31.9999 40.959872zM432.638648 895.9968a260.479186 260.479186 0 0 0 261.759182-259.19919l-0.511998-14.847954A263.039178 263.039178 0 0 0 595.838138 432.638248l-14.719954-10.879966a255.9992 255.9992 0 0 0-137.59957-43.519864h-39.679876A375.678826 375.678826 0 0 1 63.9998 6.39958l0.639998-7.679976a57.59982 57.59982 0 0 1 17.279946-33.279896l5.631982-5.183984a55.679826 55.679826 0 0 1 35.32789-12.095962h333.182959l1.727994-0.191999a29.439908 29.439908 0 0 0 26.047919-32.447899l-0.319999-5.567983a32.639898 32.639898 0 0 0-29.119909-27.711913H123.519614a127.9996 127.9996 0 0 0-87.679726 35.839888l-7.231977 8.191974A127.9996 127.9996 0 0 0 0 6.39958l0.383999 16.895947A439.038628 439.038628 0 0 0 279.679126 414.718304l18.559942 7.039978-18.559942 10.879966a264.319174 264.319174 0 0 0-97.919694 204.159362l0.128 12.73596A255.9992 255.9992 0 0 0 432.638648 895.9328z m5.759982-67.19979a191.9994 191.9994 0 0 1-191.9994-191.9994l0.319999-11.263965A191.9994 191.9994 0 0 1 438.39863 444.79821l11.263965 0.319999A191.9994 191.9994 0 0 1 438.39863 828.79701z"  horiz-adv-x="1024" />

    
    <glyph glyph-name="xudong" unicode="&#59119;" d="M283.963053 896v-74.747328h456.035498V896h59.772264v-74.747328h104.633461c67.51578 0 119.544528-51.964752 119.544528-119.544529v-359.849509h-66.171864V462.619086H59.785064v-471.010562c0-29.886132 22.71858-59.772264 59.772264-59.772264H508.141042c14.975064 0 29.886132-14.911068 29.886132-29.886132A32.125992 32.125992 0 0 0 508.141042-127.936004l-388.455722 7.167552A118.008624 118.008624 0 0 0 0.0128-1.223924V701.132179c0 67.579776 52.604712 119.544528 119.544528 119.544529h104.633461V896h59.772264z m518.687582-575.964002c72.123492 0 130.999813-57.788388 132.471721-129.463909h75.067308V-127.936004H595.175602v318.508093h75.131305A132.535717 132.535717 0 0 0 802.650635 320.035998z m159.286045-177.716893h-318.508093v-222.002125h318.508093v222.002125z m-159.350041-45.949128c8.63946 0 16.510968-3.135804 22.3986-8.575464a33.27792 33.27792 0 0 0 7.231548-41.27742 32.125992 32.125992 0 0 0-11.903256-12.543216l-0.383976-0.191988v-67.643773h-34.621836v67.643773l-0.447972 0.191988a33.661896 33.661896 0 0 0 17.726892 62.3961z m-376.360477 21.950628v-59.772264H187.137105v59.772264H426.226162z m376.424473 153.462409c-45.373164 0-82.618836-36.15774-84.15474-81.274921h168.437472a84.410724 84.410724 0 0 1-84.282732 81.274921zM426.226162 342.498594v-59.772264H187.137105V342.434598H426.226162zM224.190789 760.904443H119.557328a59.132304 59.132304 0 0 1-59.772264-59.772264v-179.316792h896.583964V701.132179a59.132304 59.132304 0 0 1-59.708268 59.772264h-104.633461v-111.801012h-59.772264V760.968439H283.963053v-111.801012h-59.772264V760.968439z"  horiz-adv-x="1024" />

    
    <glyph glyph-name="zhongwen" unicode="&#59120;" d="M903.616 896C969.984 896 1024 841.984 1024 775.616V-7.68A120.576 120.576 0 0 0 903.552-128H120.384A120.512 120.512 0 0 0 0-7.616V775.68C0 841.984 54.016 896 120.384 896H903.68z m0-69.12H120.32a51.328 51.328 0 0 1-51.264-51.264V-7.68c0-28.288 23.04-51.264 51.264-51.264H903.68c28.288 0 51.264 23.04 51.264 51.264V775.68a51.392 51.392 0 0 1-51.264 51.264zM542.528 678.4v-109.44H768v-305.6h-59.904v35.968H542.528v-211.904h-62.08v211.84h-164.48v-35.904H256V568.896h224.96V678.4h61.568z m-62.08-168.32h-164.48v-151.936h164.48V510.08z m227.648 0H543.04v-151.936h165.056V510.08z"  horiz-adv-x="1024" />

    
    <glyph glyph-name="tongzhi" unicode="&#59122;" d="M848.256 38.592H125.568V478.528c0 92.16 36.096 179.072 101.76 244.672a344 344 0 0 0 244.672 101.76h38.144c89.984 0 174.72-35.2 238.72-99.2s99.392-148.864 99.392-238.848v-448.32zM186.816 99.84h600.192V486.912A277.12 277.12 0 0 1 510.08 763.712h-38.144a285.504 285.504 0 0 1-285.184-285.184v-378.688zM486.912 767.36a30.592 30.592 0 0 0-30.656 30.656V865.408a30.592 30.592 0 0 0 61.248 0v-67.392a30.592 30.592 0 0 0-30.592-30.592z m448.256-731.2H42.24a30.656 30.656 0 0 0 0 61.248h892.928a30.656 30.656 0 0 0 0-61.248zM483.84-128a196.48 196.48 0 0 0-196.48 195.84l-0.128 30.72h393.28l-0.064-30.72A196.48 196.48 0 0 0 483.84-128z m-131.584 165.376a135.68 135.68 0 0 1 131.648-104.128c63.744 0 117.504 44.48 131.584 104.128H352.256z"  horiz-adv-x="1024" />

    
    <glyph glyph-name="zanwushuju" unicode="&#58997;" d="M126.464 24.831999999999994c6.656 0 11.008-4.352 11.008-11.008 0-6.656-4.352-11.008-11.008-11.008H18.688c-6.656 0-11.008 4.352-11.008 11.008 0 6.656 4.352 11.008 11.008 11.008h107.776zM956.16 110.08000000000004c6.656 0 11.008-4.352 11.008-11.008 0-6.656-4.352-11.008-11.008-11.008H768v-28.928c0-31.232-24.576-55.808-55.808-55.808H678.4c0-6.656-3.072-13.568-7.936-18.944-11.008-11.008-27.648-11.008-39.168 0l-17.664 18.944H182.272c-6.656 0-11.008 4.352-11.008 11.008 0 6.656 4.352 11.008 11.008 11.008h49.152c-7.424 9.728-11.008 21.504-11.008 33.792V616.96c0 31.232 24.576 55.808 55.808 55.808h35.584V701.44c0 31.232 24.576 55.808 55.808 55.808h437.504c31.232 0 55.808-24.576 55.808-55.808v-557.568c0-12.288-4.352-24.576-11.008-33.792h106.24z m-175.872 0h23.296c18.944 0 33.024 14.592 33.024 33.792V701.44c0 18.944-14.592 33.792-33.024 33.792H366.08c-18.944 0-33.024-14.592-33.024-33.792v-28.928h380.672c31.232 0 55.808-24.576 55.808-55.808v-506.88h10.752z m-261.632 27.648c37.888 37.888 37.888 99.328 0 137.216-17.664 17.664-42.24 28.16-68.096 28.16-25.856 0-50.176-9.728-68.096-28.16-37.888-37.888-37.888-99.328 0-137.216 17.664-17.664 42.24-28.16 68.096-28.16 24.576 0.512 49.152 10.24 68.096 28.16zM401.664 240.64c2.56-1.28 3.072-4.352 2.56-7.936-7.936-13.568-9.216-31.232-3.072-46.08 1.28-3.072 0-5.632-3.072-7.936h-2.56c-2.56 0-4.352 1.28-5.632 3.072-6.656 17.664-5.632 39.168 3.072 55.808 2.048 3.072 5.632 4.352 8.704 3.072z m345.088-182.016V616.192c0 18.944-14.592 33.792-33.792 33.792H274.944c-18.944 0-33.792-14.592-33.792-33.792v-558.336c0-18.944 14.592-33.792 33.792-33.792h317.44l-31.232 31.232c-7.424 7.424-10.496 18.944-6.656 28.928l-27.648 28.928c-20.736-17.664-47.872-27.648-75.264-28.16-32.512 0-61.184 12.288-84.48 34.304-46.592 46.08-46.592 121.344-0.512 167.936l0.512 0.512c22.016 22.016 51.968 34.304 84.48 34.304s61.184-12.288 84.48-34.304c43.52-43.52 45.312-113.92 7.936-160.512l28.928-28.928c9.728 3.072 21.504 2.56 28.928-6.656l69.12-69.12h43.52c16.896 2.304 32.256 17.152 32.256 36.096zM344.064 535.296c-6.656 0-11.008 4.352-11.008 11.008 0 6.656 4.352 11.008 11.008 11.008h194.816c6.656 0 11.008-4.352 11.008-11.008 0-6.656-4.352-11.008-11.008-11.008h-194.816zM603.392 486.4c6.656 0 11.008-4.352 11.008-11.008 0-6.656-4.352-11.008-11.008-11.008H347.136c-6.656 0-11.008 4.352-11.008 11.008 0 6.656 4.352 11.008 11.008 11.008h256.256z m-125.184-71.68c6.656 0 11.008-4.352 11.008-11.008 0-6.656-4.352-11.008-11.008-11.008h-136.704c-6.656 0-11.008 4.352-11.008 11.008 0 6.656 4.352 11.008 11.008 11.008h136.704zM52.992 660.48c12.288 0 22.016-9.728 22.016-22.016s-9.728-22.016-22.016-22.016-22.016 9.728-22.016 22.016c0 11.52 9.728 22.016 22.016 22.016z m0-67.584c24.576 0 44.8 20.224 44.8 44.8s-20.224 44.8-44.8 44.8-44.8-20.224-44.8-44.8c0.768-24.576 20.224-44.032 44.8-44.8z m932.096-18.944c-6.656 0-11.008 4.352-11.008 11.008 0 6.656 4.352 11.008 11.008 11.008 6.656 0 11.008-4.352 11.008-11.008 0-6.144-4.352-11.008-11.008-11.008z m0 44.8c-18.944 0-33.024-14.592-33.024-33.792 0-18.944 14.592-33.792 33.024-33.792s33.024 14.592 33.024 33.792c0 19.712-14.08 33.792-33.024 33.792zM171.264 735.232c0-6.656 4.352-11.008 11.008-11.008 6.656 0 11.008 4.352 11.008 11.008v13.568h13.568c6.656 0 11.008 4.352 11.008 11.008 0 6.656-4.352 11.008-11.008 11.008h-13.568v13.568c0 6.656-4.352 11.008-11.008 11.008-6.656 0-11.008-4.352-11.008-11.008V770.56h-13.568c-6.656 0-11.008-4.352-11.008-11.008 0-6.656 4.352-11.008 11.008-11.008h13.568v-13.312zM144.384 422.656h-13.568v13.568c0 6.656-4.352 11.008-11.008 11.008-6.656 0-11.008-4.352-11.008-11.008v-13.568h-13.568c-6.656 0-11.008-4.352-11.008-11.008 0-6.656 4.352-11.008 11.008-11.008h13.568v-13.568c0-6.656 4.352-11.008 11.008-11.008 6.656 0 11.008 4.352 11.008 11.008v12.8h13.568c6.656 0 11.008 4.352 11.008 11.008 0.512 6.912-4.352 11.776-11.008 11.776z m0 0M971.52 391.424h-13.568v13.568c0 6.656-4.352 11.008-11.008 11.008-6.656 0-11.008-4.352-11.008-11.008v-13.568h-13.568c-6.656 0-11.008-4.352-11.008-11.008 0-6.656 4.352-11.008 11.008-11.008h13.568v-13.568c0-6.656 4.352-11.008 11.008-11.008 6.656 0 11.008 4.352 11.008 11.008v13.568h13.568c6.656 0 11.008 4.352 11.008 11.008 0 6.144-4.864 11.008-11.008 11.008"  horiz-adv-x="1024" />

    
    <glyph glyph-name="weiwanjie" unicode="&#59117;" d="M534.912 603.456H196.544a36.544 36.544 0 1 0 0 73.088h338.368a36.544 36.544 0 1 0 0-73.088zM242.368 310.848H196.48A36.544 36.544 0 1 0 196.48 384h45.824a36.544 36.544 0 1 0 0-73.152zM693.568-128a330.816 330.816 0 0 0-330.432 330.432 330.752 330.752 0 0 0 330.432 330.432A330.816 330.816 0 0 0 1024 202.432 330.816 330.816 0 0 0 693.568-128z m0 587.712a257.6 257.6 0 0 1-257.28-257.28 257.6 257.6 0 0 1 257.28-257.28 257.6 257.6 0 0 1 257.28 257.28 257.536 257.536 0 0 1-257.28 257.28z m-377.024-511.04H36.48A36.544 36.544 0 0 0 0-14.72V859.456C0 879.616 16.384 896 36.544 896h815.488c20.16 0 36.544-16.384 36.544-36.544v-286.72a36.608 36.608 0 0 0-73.152 0V822.848H73.152v-800.96h243.392a36.544 36.544 0 1 0 0-73.152z m527.04 217.216h-161.792a36.544 36.544 0 0 0-36.608 36.48V357.76a36.608 36.608 0 0 0 73.152 0v-118.784h125.248a36.544 36.544 0 1 0 0-73.088z"  horiz-adv-x="1024" />

    
    <glyph glyph-name="bishi" unicode="&#59097;" d="M800 320a224 224 0 1 0 0-448 224 224 0 0 0 0 448zM884.8 891.2c70.72 0 129.152-55.36 134.08-124.8l0.32-9.6V320h-67.2V756.8a67.584 67.584 0 0 1-59.904 66.752l-7.296 0.448H139.2c-34.56-0.192-62.976-26.304-66.752-59.904l-0.448-7.296v-745.6c0.192-34.56 26.304-62.976 59.904-66.752l7.296-0.448H576v-67.2H139.2a134.912 134.912 0 0 0-134.08 124.8l-0.32 9.6V756.8C4.8 827.52 60.16 885.952 129.6 890.88l9.6 0.32h745.6zM800 256a160 160 0 1 1 0-320 160 160 0 0 1 0 320z m83.136-112a32 32 0 0 0-11.712-43.712l-110.848-64a32 32 0 0 0-32 55.424l110.848 64a32 32 0 0 0 43.712-11.712z m-476.16 513.792a33.6 33.6 0 0 0 42.048-22.144l118.144-252.864 66.24 209.6a33.664 33.664 0 0 0 64 0.256l40.576-125.184 108.288 0.064a33.6 33.6 0 0 0 0-67.2H713.6a33.6 33.6 0 0 0-32 23.232l-15.68 48.448-66.944-211.84a33.6 33.6 0 0 0-64.128 0.192L414.336 520.64 344.96 331.2a33.6 33.6 0 0 0-31.552-22.08H177.728a33.6 33.6 0 0 0 0 67.2H289.92l95.36 260.928a33.6 33.6 0 0 0 21.632 20.544z"  horiz-adv-x="1024" />

    
    <glyph glyph-name="danju" unicode="&#59098;" d="M880.512 875.392H266.304c-67.84 0-122.88-55.04-122.88-122.88v-614.208H20.672v-122.88c0-67.84 55.04-122.816 122.88-122.816h552.768c67.712 0 122.88 55.104 122.88 122.88V629.696h61.44a122.88 122.88 0 0 1 0 245.696zM143.488-45.952a61.44 61.44 0 0 0-61.44 61.44v61.44H573.44v-61.44c0-22.464 6.464-43.328 17.088-61.44H143.488z m614.208 798.464v-737.024a61.44 61.44 0 0 0-122.88 0v122.88H204.928V752.448c0 33.92 27.52 61.44 61.44 61.44h508.48a121.408 121.408 0 0 1-17.088-61.44z m122.88-61.44h-61.44v61.44a61.44 61.44 0 1 0 61.44-61.44zM266.24 445.44H573.44V384H266.24v61.44z m0 122.88h429.952v-61.44H266.304v61.44z"  horiz-adv-x="1024" />

    
    <glyph glyph-name="fengkong" unicode="&#59099;" d="M909.76 740.096c-29.568 0-105.728 3.968-203.456 38.656C601.536 816 502.976 886.656 502.976 886.656S400.32 816.896 316.288 784.64a688.384 688.384 0 0 0-230.784-44.736H81.792v-430.464c0-192.128 267.584-428.544 421.12-428.544 159.616 0 420.16 244.672 420.16 428.544V740.48s-4.608-0.32-13.312-0.32z m-53.76-430.592c0-65.792-49.92-156.096-130.304-235.584A567.04 567.04 0 0 0 603.52-19.2c-38.336-21.184-74.048-32.832-100.544-32.832-55.232 0-146.368 50.688-221.568 123.392-40.128 38.656-73.6 81.28-96.832 122.816-23.36 41.792-35.712 81.6-35.712 115.328V676.736c48.384 5.12 118.08 17.28 191.36 45.312 58.112 22.208 122.432 59.712 162.24 84.48 40.832-25.792 109.248-65.28 181.312-90.944 69.376-24.64 129.472-35.2 172.224-39.488v-366.592zM706.752 417.28H536.96V587.072a33.472 33.472 0 1 1-67.072 0v-169.664H300.224a33.472 33.472 0 1 1 0-67.072h169.728v-169.728a33.472 33.472 0 1 1 67.072 0V350.272h169.728a33.472 33.472 0 1 1 0 67.072z"  horiz-adv-x="1024" />

    
    <glyph glyph-name="gengduo" unicode="&#59100;" d="M512 896a512 512 0 0 1-512-512 512 512 0 0 1 512-512A512 512 0 1 1 512 896zM512-61.44c-244.288 0-442.24 199.168-442.24 444.864 0 245.76 197.952 444.928 442.24 444.928 244.224 0 442.24-199.168 442.24-444.928S756.16-61.44 512-61.44zM245.568 386.368c0-35.84 28.8-64.832 64.448-64.832a64.64 64.64 0 0 1 64.448 64.832 64.64 64.64 0 0 1-64.448 64.896 64.64 64.64 0 0 1-64.448-64.896z m215.872 0c0-35.84 28.864-64.832 64.448-64.832a64.64 64.64 0 0 1 64.512 64.832 64.64 64.64 0 0 1-64.512 64.896A64.64 64.64 0 0 1 461.44 386.432z m194.88 0c0-35.84 28.864-64.832 64.512-64.832a64.64 64.64 0 0 1 64.448 64.832 64.64 64.64 0 0 1-64.448 64.896 64.64 64.64 0 0 1-64.512-64.896z"  horiz-adv-x="1024" />

    
    <glyph glyph-name="jixi" unicode="&#59101;" d="M979.072 684.928C979.072 821.952 738.432 896 512 896 286.912 896 47.744 822.72 44.928 687.232v-608.832C50.688-55.936 288.192-128 512-128s461.248 72.064 467.072 206.4V684.928zM103.552 362.752c77.504-64.64 227.2-106.368 408.448-106.368s330.944 41.728 408.448 106.368V257.92c-19.584-67.776-181.824-137.472-408.448-137.472-226.56 0-388.928 69.76-408.448 137.472V362.752z m816.96 91.328c-19.648-67.712-181.888-137.408-408.512-137.408-226.56 0-388.864 69.696-408.448 137.408V578.176C188.8 509.696 353.792 473.408 512 473.408c158.208 0 323.328 36.224 408.512 104.768v-124.096zM512 835.712c235.904 0 412.16-79.552 412.16-150.784 0-71.296-176.256-151.296-412.16-151.296-235.904 0-412.16 80-412.16 151.296C99.84 756.16 276.224 835.712 512 835.712z m0-903.424c-216.128 0-382.208 66.944-408.448 133.12v101.184c77.504-64.64 227.2-106.304 408.448-106.304s331.008 41.728 408.448 106.304v-101.184c-26.24-66.176-192.32-133.12-408.448-133.12z"  horiz-adv-x="1024" />

    
    <glyph glyph-name="kuajinghuikuan" unicode="&#59102;" d="M505.28-114.56C226.56-114.56 0 112.192 0 390.784 0 669.44 226.624 896 505.28 896c272 0 489.28-194.24 505.152-451.904a32.512 32.512 0 1 0-64.896-4.032c-13.952 226.56-199.168 390.912-440.32 390.912a440.704 440.704 0 0 1-440.192-440.256 440.704 440.704 0 0 1 440.256-440.192 32.512 32.512 0 0 0 0-65.024zM935.36 550.848H81.6a32.512 32.512 0 0 0 0 65.024h853.76a32.512 32.512 0 0 0 0-65.024z m-465.152-381.696h-390.4a32.512 32.512 0 0 0 0 65.024h390.4a32.512 32.512 0 0 0 0-65.024zM528.768-114.56a32.384 32.384 0 0 0-22.08 8.704A685.312 685.312 0 0 0 286.016 394.24 685.44 685.44 0 0 0 483.968 883.648l1.28 1.344a32.512 32.512 0 1 0 46.08-45.952l-1.216-1.152a620.608 620.608 0 0 1-179.2-443.136 620.8 620.8 0 0 1 186.688-440.32c4.288-4.288 8.704-8.512 13.184-12.608a32.448 32.448 0 1 0-22.08-56.32v-0.064zM698.496 460.16a32.512 32.512 0 0 0-32.256 28.928A491.584 491.584 0 0 1 542.912 764.16l-56.256 62.72-12.16 12.16A32.512 32.512 0 1 0 520.192 885.12l12.928-12.8a22.4 22.4 0 0 0 1.28-1.344l56.96-63.424a556.16 556.16 0 0 0 139.52-311.296 32.512 32.512 0 0 0-28.736-35.904 31.744 31.744 0 0 0-3.648-0.256zM796.416-60.992A28.48 28.48 0 0 0 768-32.64v68.48h-77.184a28.48 28.48 0 0 0 0 56.96H768v40.576h-109.696a28.48 28.48 0 0 0 0 56.896h93.568L675.84 266.368a28.16 28.16 0 0 0 0 40.192 29.12 29.12 0 0 0 40.256 0l80.32-80.32L876.8 306.56a29.056 29.056 0 0 0 40.256 0 28.16 28.16 0 0 0 0-40.192l-76.032-76.032h93.568a28.48 28.48 0 0 0 0-56.896H824.96v-40.64h77.184a28.48 28.48 0 0 0 0-56.896H824.96v-68.48c0-15.68-12.8-28.416-28.48-28.416z"  horiz-adv-x="1024" />

    
    <glyph glyph-name="piliangshuju" unicode="&#59103;" d="M608.32 896c78.08 0 140.416-62.4 140.416-140.416V646.4h109.184c78.016 0 140.416-62.4 143.488-140.352v-467.968a139.776 139.776 0 0 0-140.352-140.416h-471.04A139.776 139.776 0 0 0 249.6 38.08V147.2H140.416C62.336 147.264 0 209.664 0 284.544v471.04C0 833.664 62.4 896 140.416 896z m252.736-315.072h-471.04c-40.576 0-74.88-34.368-74.88-74.88v-467.968c0-40.576 34.304-74.88 74.88-74.88h467.904c40.576 0 74.88 34.304 74.88 74.88h3.136V506.048c0 40.512-34.304 74.88-74.88 74.88zM794.88 383.936h3.648a23.936 23.936 0 0 0 23.168-20.864l10.176-92.672c1.472-12.8-8.192-24.32-21.632-25.728a24.128 24.128 0 0 0-26.88 20.864l-4.288 39.04L663.04 172.8a25.152 25.152 0 0 0-30.976-5.12l-109.632 61.248-97.152-94.464a25.216 25.216 0 0 0-34.56 0.704 22.592 22.592 0 0 0-0.256 32L500.928 274.56a25.216 25.216 0 0 0 29.696 3.776l108.352-60.544 99.84 113.472-35.776-3.52a24.128 24.128 0 0 0-26.752 20.736 23.36 23.36 0 0 0 16.832 24.64l4.864 0.96 93.312 9.408 3.584 0.448zM611.456 827.392h-471.04c-40.576 0-74.88-34.368-74.88-74.88v-467.968c0-40.576 34.304-74.88 74.88-74.88H249.6v296.32c0 78.08 62.4 140.416 140.352 140.416h296.384V752.512c0 40.512-34.304 74.88-74.88 74.88z"  horiz-adv-x="1024" />

    
    <glyph glyph-name="pipei" unicode="&#59104;" d="M128 0a128 128 0 0 0-128 128V768a128 128 0 0 0 128 128h512a128 128 0 0 0 128-128h128a128 128 0 0 0 128-128v-640a128 128 0 0 0-128-128H384a128 128 0 0 0-128 128H128zM896 704H384a64 64 0 0 1-63.552-56.512L320 640v-640a64 64 0 0 1 56.512-63.552L384-64h512a64 64 0 0 1 63.552 56.512L960 0V640a64 64 0 0 1-56.512 63.552L896 704z m-224-448a32 32 0 1 0 0-64h-192a32 32 0 1 0 0 64h192z m128 256a32 32 0 1 0 0-64h-320a32 32 0 1 0 0 64h320z m-152.512 319.552L640 832H128a64 64 0 0 1-63.552-56.512L64 768v-640a64 64 0 0 1 56.512-63.552L128 64h128V320h-32a32 32 0 1 0 0 64H256V576h-32a32 32 0 1 0 0 64H256a128 128 0 0 0 128 128h320a64 64 0 0 1-56.512 63.552z"  horiz-adv-x="1024" />

    
    <glyph glyph-name="ruku" unicode="&#59106;" d="M470.17632 881.92c24.064 16.256 55.936 16 79.68-0.768l380.864-269.44c18.304-12.928 29.248-33.984 29.248-56.32V375.68a35.84 35.84 0 0 0-35.904-35.712 35.776 35.776 0 0 0-35.968 35.712V554.048L509.47232 822.08 135.64832 567.68v-562.304h199.68a35.776 35.776 0 1 0 0-71.424H133.47232c-38.4 0-69.632 31.04-69.504 69.12V568.832c0 22.912 11.264 44.16 30.208 57.088z m234.88-571.2a40.832 40.832 0 0 0 52.288-0.448c14.336-12.8 14.08-33.28-0.448-45.888L635.48832 160h294.72c16.384 0 29.824-14.4 29.824-32s-13.44-32-29.824-32H636.89632l112.384-105.472a29.632 29.632 0 0 0-1.728-45.824 39.936 39.936 0 0 0-25.216-8.704 40.32 40.32 0 0 0-27.136 10.24L521.88832 108.8a29.696 29.696 0 0 0 1.152 45.312z"  horiz-adv-x="1024" />

    
    <glyph glyph-name="ruchi" unicode="&#59107;" d="M1010.368 533.12c23.552 0 32.832-10.88 32.832-33.984V-128H19.2V499.136c0 23.04 13.12 33.92 36.672 33.92s34.752-11.136 34.752-34.176v-230.592c5.312 2.88 25.344 5.568 31.552 8.128 4.16 1.728 7.808 3.584 12.288 5.12 0.128 0 0.32 0 0.448 0.192l0.384 0.128c0.512 0.256 1.088 0.192 1.536 0.32 15.296 4.672 31.232 7.04 47.36 6.848l5.888 0.32v-0.896c38.656-1.536 76.16-16.832 108.8-47.36 32.448-30.272 57.152-27.52 72.96-22.976a96 96 0 0 1 36.416 21.12l0.896 0.768a193.92 193.92 0 0 0 70.336 41.6c57.728 19.008 115.008 4.288 161.408-41.088 23.68-23.424 47.104-30.016 73.728-21.376 21.12 6.976 36.48 21.248 36.672 21.376 2.944 2.88 29.568 28.16 70.016 41.344 47.744 15.68 112.64 4.928 154.112-24.576V497.28c0 23.04 11.392 35.84 34.944 35.84z m-162.752-313.28a106.112 106.112 0 0 1-36.608-21.12c-2.944-2.88-29.632-28.16-70.016-41.472-57.344-18.688-114.496-4.032-160.896 41.472-23.68 23.168-47.36 29.76-74.24 20.992-20.544-6.592-35.712-20.096-37.248-21.376-7.552-7.616-50.304-47.616-112.32-49.088H352.64c-40.704 0-78.72 16.512-113.28 48.96-17.28 16-34.304 23.872-52.032 24.768-8.96 0.768-17.92-0.32-26.432-3.136a110.72 110.72 0 0 1-37.248-21.504c-6.144-5.952-27.264-12.672-34.304-17.6l0.64-243.648H977.28l-0.512 233.28c-13.12 7.488-44.608 17.792-55.424 28.16-23.68 23.36-47.104 29.952-73.728 21.312zM522.752 896c18.304 0 33.472-13.056 36.288-30.208l0.512-5.888-0.064-321.92 132.096 119.424a34.944 34.944 0 0 0 0.832 0.704l0.896 0.704a37.312 37.312 0 0 0 51.84-4.608 35.52 35.52 0 0 0 0-46.208l-4.736-4.608-193.28-173.888a37.376 37.376 0 0 0-43.264-3.968l-5.504 3.968L301.44 600.256a35.584 35.584 0 0 0-3.2 52.48 37.312 37.312 0 0 0 46.72 5.504l5.248-4.032 135.68-117.568 0.064 323.264c0 17.92 13.312 32.832 30.848 35.648L522.752 896z"  horiz-adv-x="1088" />

    
    <glyph glyph-name="shangtiao" unicode="&#59108;" d="M0 384a512 512 0 1 1 1024 0A512 512 0 0 1 0 384z m68.288 0a443.712 443.712 0 1 0 887.424 0A443.712 443.712 0 0 0 68.288 384z m477.824 187.712a34.112 34.112 0 1 1-68.224 0V128a34.112 34.112 0 1 1 68.224 0V571.712zM512 592.064l182.144-161.408a34.112 34.112 0 1 1 45.312 51.008l-204.8 181.568a34.112 34.112 0 0 1-45.312 0l-204.8-181.568a34.112 34.112 0 1 1 45.312-51.072L512 592.064z"  horiz-adv-x="1024" />

    
    <glyph glyph-name="shangyibu" unicode="&#59109;" d="M512-128A512 512 0 1 1 512 896a512 512 0 0 1 0-1024z m0 68.288A443.712 443.712 0 1 0 512 827.712a443.712 443.712 0 0 0 0-887.424zM324.288 418.112a34.112 34.112 0 1 1 0-68.224H768a34.112 34.112 0 1 1 0 68.224H324.288zM303.936 384L465.28 566.144a34.112 34.112 0 1 1-51.008 45.312l-181.568-204.8a34.112 34.112 0 0 1 0-45.312l181.568-204.8a34.112 34.112 0 1 1 51.072 45.312L303.936 384z"  horiz-adv-x="1024" />

    
    <glyph glyph-name="shifang" unicode="&#59110;" d="M942.037608 815.55562c-86.524106 98.171582-224.629892 98.171582-311.153998 0L453.931573 637.32364l42.238099-37.7583 178.551966 169.016394c67.196976 67.900944 173.688184 67.900944 228.085736-5.311761 55.037523-74.172662 60.349284-173.816178-8.127635-225.653846l-171.896264-172.152253 54.269558-49.405777 165.688544 178.359974c100.155493 90.043948 100.155493 230.197641 2.559884 317.681705l-3.32785 3.455844z m69.436876-863.513142L64.253109 888.832323C53.757581 899.071862 24.510897 899.071862 1.279942 883.840547L7.487663 888.832323c-10.623522-10.495528-10.623522-40.126194 4.991775-63.357149l947.285373-936.725848c21.247044-21.11905 41.598128-21.11905 51.77367-6.079726l4.991775 6.079726c10.623522 10.495528 10.623522 40.126194-4.991775 63.293152h-0.063997z m-926.742297-7.423666a220.982056 220.982056 0 0 1 314.353854 0l176.632052 179.191937-45.181967 44.605992-175.99208-177.720002c-68.22093-68.796904-174.712138-68.796904-228.981696 4.415801-64.189111 64.189111-64.189111 170.872311 8.127634 225.653846l-5.247764-4.799784L294.642741 394.262578l-46.973886 46.077927L71.868766 263.068482c-88.316026-89.083991-84.988176-230.517627 11.135499-316.785745l1.727922-1.599928z"  horiz-adv-x="1024" />

    
    <glyph glyph-name="xianjintuisong" unicode="&#59112;" d="M515.724804 895.985921a511.957124 511.957124 0 0 0 507.989455-576.015759L1023.202302 320.034157a31.99732 31.99732 0 0 0-63.99464-0.063995h-0.063995l0.383968 3.775684 0.191984 2.047829 0.063995 0.447962-0.639947-6.271475a447.962483 447.962483 0 1 1-385.567708-380.192158 13.310885 13.310885 0 0 0 3.45571 0.639946c0.95992 0 1.919839 0.063995 2.75177 0.191984l5.695523-0.639946a31.99732 31.99732 0 0 0-5.759518-63.418689l0.063995-0.511957A511.957124 511.957124 0 1 0 515.724804 895.985921z m318.949288-649.225627l181.936762-156.530891a29.693513 29.693513 0 0 0 1.151904-45.308205l-173.297486-162.610382a40.316623 40.316623 0 0 0-27.133728-10.239142 39.932656 39.932656 0 0 0-25.213888 8.703271 29.629519 29.629519 0 0 0-1.727856 45.820163l112.374589 105.463167H609.540946C593.158319 32.058275 579.719444 46.457069 579.719444 64.055595s13.438874 31.99732 29.821502 31.997321h294.69532l-121.461828 104.375258a29.757508 29.757508 0 0 0-0.447962 45.884157 40.828581 40.828581 0 0 0 52.347616 0.447963zM651.521431 640.007359l45.24421-43.132387-140.020273-133.428826H707.708725v-60.986892H547.722124v-91.512336H707.708725v-60.858903H547.722124V128.050236h-63.994641v122.037779H323.740882v60.858903h159.986601v91.512336H323.740882v60.986892h150.963357l-4.223646 4.095657L334.619971 596.874972 379.928177 640.007359 515.724804 510.610196 651.521431 640.007359z"  horiz-adv-x="1027" />

    
    <glyph glyph-name="xunzhenghan" unicode="&#59113;" d="M837.312 896c44.16 0 80-33.28 80-74.24v-331.776l61.376 28.16A32.064 32.064 0 0 0 1024 488.96v-529.856C1024-88.96 985.856-128 938.816-128H85.376C38.4-128 0.064-88.96 0.064-40.832L0 489.024a32 32 0 0 0 45.44 29.184l39.872-18.368V821.76c0 40.96 35.904 74.24 80 74.24h672zM64 439.04l0.256-478.464c0-12.736 9.6-23.04 21.312-23.04H938.88c11.776 0 21.312 10.304 21.312 23.04L960 438.976l-434.688-199.36a31.808 31.808 0 0 0-26.752 0L64 439.04z m773.312 392.832h-672c-9.152 0-16-5.376-16-10.112V470.4L512 303.936l341.312 156.672V821.76c0 4.736-6.784 10.112-16 10.112zM768 563.84a32 32 0 0 0 0.512-64.064H288a32 32 0 0 0 0 64.064H768z m0 128.192a32 32 0 0 0 0-64.064H552a32 32 0 0 0 0 64.064H768z"  horiz-adv-x="1024" />

    
    <glyph glyph-name="zhihang" unicode="&#59114;" d="M512 896a512 512 0 1 0 0-1024A512 512 0 0 0 512 896z m0-64a448 448 0 1 1 0-896A448 448 0 0 1 512 832z m-60.608-259.2l7.04-3.008 245.44-140.608c16.576-8.32 27.584-24.832 24.832-44.16 0-16.896-6.336-31.68-19.008-40.64l-5.76-3.456-245.504-143.36c-8.256-2.816-16.512-5.568-24.768-5.568-8.32 0-16.576 0-24.832 5.504-11.84 9.472-21.632 22.976-24.192 37.056l-0.64 7.04V525.76c0 19.264 8.32 35.84 24.832 44.096a52.288 52.288 0 0 0 42.56 3.072zM447.36 503.68v-237.184l206.848 118.592L447.36 503.68z"  horiz-adv-x="1024" />

    
    <glyph glyph-name="zhiling" unicode="&#59115;" d="M512 896a512 512 0 1 0 0-1024A512 512 0 0 0 512 896z m0-68.288a443.712 443.712 0 0 1-187.52-846.016V627.968l53.184 0.192 5.312-6.72c4.608-5.76 4.672-10.88 4.864-20.928l0.192-21.632c0.128-14.848 0.192-35.712 0.256-62.016V275.264c-0.192-136.96-0.64-276.736-0.64-318.464v1.152A443.712 443.712 0 1 1 512 827.712zM402.048 626.816l339.008-169.472-339.008-169.472v67.84l203.456 101.632-203.456 101.76V626.752z"  horiz-adv-x="1024" />

    
    <glyph glyph-name="yizhi" unicode="&#59116;" d="M911.16326 895.98784h-334.716025A94.974872 94.974872 0 0 1 490.240258 839.284513v-3.007964a90.878921 90.878921 0 0 1-7.039916-35.199582v-334.716025A95.358868 95.358868 0 0 1 578.047216 371.194072h334.716025a95.678864 95.678864 0 0 1 95.102871 95.16687v334.716025A95.102871 95.102871 0 0 1 911.227259 895.98784z m30.33564-429.818896a30.271641 30.271641 0 0 0-30.33564-30.33564h-334.716025a30.463638 30.463638 0 0 0-30.271641 30.33564v334.716025c0 16.703802 13.567839 30.271641 30.33564 30.271641h334.716025c16.639802 0 30.271641-13.567839 30.271641-30.33564v-334.716025zM746.621214 708.726064H117.444685a103.038776 103.038776 0 0 1-102.910778-103.038777v-629.240527a102.846779 102.846779 0 0 1 102.910778-102.142787h629.176529a102.846779 102.846779 0 0 1 103.038776 102.654781V605.623288c0 56.959324-46.079453 103.102776-103.038776 103.102776z m41.27951-686.967842c0-48.639422-39.487531-88.126953-88.126954-88.126954h-535.673639c-48.639422 0-88.062954 39.423532-88.062954 88.126954V557.43186c0 48.639422 39.423532 88.062954 88.062954 88.062955h536.057635c48.639422 0 88.062954-39.423532 88.062954-88.062955l-0.319996-535.673638zM426.881011 208.955999H188.291844a29.759647 29.759647 0 1 0 0 59.519293h238.717165a29.759647 29.759647 0 1 0 0-59.519293zM158.532197 417.913517a28.159666 28.159666 0 0 0 29.759647 29.759647h178.621879a29.759647 29.759647 0 1 0 0-59.519293h-178.55788a28.159666 28.159666 0 0 0-29.823646 29.759646z m447.418687-377.531517H188.227845a29.951644 29.951644 0 0 0 0 59.711291h417.65904a29.951644 29.951644 0 0 0 0-59.711291z"  horiz-adv-x="1024" />

    
    <glyph glyph-name="sousuo" unicode="&#59095;" d="M823.569067 114.0736a37.0688 37.0688 0 0 1 5.188266-6.3488l200.2944-196.949333c6.9632-6.826667 16.247467-10.6496 26.146134-10.6496a37.0688 37.0688 0 0 1 37.0688 36.386133 35.84 35.84 0 0 1-10.8544 25.8048l-200.2944 196.949333-1.570134 1.4336-1.501866 1.297067 1.092266 1.6384a463.0528 463.0528 0 0 1 80.213334 260.7104C959.351467 684.4416 744.174933 896 479.709867 896 215.176533 896 0 684.373333 0 424.3456c0-260.096 215.176533-471.6544 479.709867-471.6544a482.850133 482.850133 0 0 1 258.6624 74.752l-54.0672 53.179733a409.6 409.6 0 0 0-204.5952-55.0912c-223.6416 0-405.640533 178.926933-405.640534 398.813867 0 219.886933 181.998933 398.813867 405.640534 398.813867 223.6416 0 405.572267-178.858667 405.572266-398.813867a393.6256 393.6256 0 0 0-105.403733-267.264l43.554133-42.8032 0.136534-0.2048z"  horiz-adv-x="1092" />

    
    <glyph glyph-name="shuaxin" unicode="&#59096;" d="M503.168 875.648C235.136 875.648 17.024 658.432 17.024 391.552s218.048-484.16 486.144-484.16c268.032 0 486.08 217.216 486.08 484.16a37.568 37.568 0 0 1-75.072 0c0-225.728-184.32-409.28-411.008-409.28-226.56 0-410.88 183.552-410.88 409.28 0 225.664 184.32 409.28 410.88 409.28a414.08 414.08 0 0 0 302.4-132.16l-136.128 8.96a37.056 37.056 0 0 1-40-34.816 37.568 37.568 0 0 1 35.008-39.808l211.008-14.08h2.432a37.504 37.504 0 0 1 37.568 34.88L929.408 833.92a37.44 37.44 0 0 1-35.072 39.872 37.12 37.12 0 0 1-39.872-34.88l-7.04-105.6A489.408 489.408 0 0 1 503.104 875.648z"  horiz-adv-x="1024" />

    
    <glyph glyph-name="quxiaoquankejie" unicode="&#59076;" d="M436.224 896c16.128 0 26.88-10.752 26.88-26.944 0-29.632 24.32-53.888 53.952-53.888a54.08 54.08 0 0 1 53.888 53.888c0 16.192 10.752 26.944 26.944 26.944h242.56c16.128 0 26.88-10.752 26.88-26.944v-293.76c32.384 13.504 62.08 29.696 94.336 48.512a24.448 24.448 0 0 0 26.944 0c8.128-5.376 13.44-13.44 13.44-24.256v-700.608c0-16.192-10.752-26.944-26.88-26.944H58.88C42.752-128 32-117.248 32-101.056V599.552c0 10.816 5.376 18.88 13.44 21.568a24.448 24.448 0 0 0 27.008 0c32.32-18.816 61.952-35.008 94.272-48.512V869.12c0 16.192 10.816 26.944 26.944 26.944z m500.992-357.248c-285.632-153.6-555.648-153.6-841.28 0v-604.608h841.28zM401.984 312.128l106.816-106.88 106.88 106.88c15.872 15.872 39.04 18.688 51.52 6.272 12.48-12.48 9.6-35.648-6.272-51.584l-106.88-106.88 106.88-106.816c15.936-15.872 18.752-39.104 6.336-51.584-12.48-12.416-35.648-9.6-51.584 6.4l-106.88 106.816-106.816-106.88c-15.872-15.872-39.104-18.688-51.52-6.272-12.48 12.48-9.6 35.648 6.272 51.584l106.816 106.88-106.88 106.816c-15.872 15.872-18.752 39.104-6.272 51.584 12.416 12.416 35.648 9.6 51.584-6.4zM411.968 836.48H224.384v-285.44c61.952-24.192 122.88-43.072 184.896-51.2V680.512c0 16.128 10.752 26.88 26.88 26.88 16.192 0 27.008-10.752 27.008-26.88v-185.984c18.88-2.688 35.008-2.688 53.888-2.688 18.88 0 35.008 2.688 53.888 2.688V680.448c0 16.128 10.752 26.88 26.944 26.88s26.944-10.752 26.944-26.88V499.84c62.016 8.064 121.408 26.88 183.36 51.2V836.48H622.144c-13.44-45.824-53.888-80.896-105.088-80.896-51.2 0-94.336 35.072-105.088 80.832z"  horiz-adv-x="1024" />

    
    <glyph glyph-name="gengxin" unicode="&#59065;" d="M989.342763 383.936a36.031955 36.031955 0 0 1-38.591951-33.215958 438.591452 438.591452 0 0 0-138.815827-288.63964A438.207452 438.207452 0 0 0 512.03136-55.99945a437.247453 437.247453 0 0 0-243.199696 73.279908 439.67945 439.67945 0 0 0-148.799814 166.719792h99.967875a36.031955 36.031955 0 0 1 0 71.99991H36.063955c-19.839975 0-36.031955-16.06398-36.031955-35.903955v-184.06377a36.031955 36.031955 0 1 1 71.99991 0v85.951893a513.087359 513.087359 0 0 1 156.863804-164.671795A509.567363 509.567363 0 0 1 512.03136-127.99936a510.271362 510.271362 0 0 1 348.991564 137.407828 509.631363 509.631363 0 0 1 161.535798 335.87158 35.967955 35.967955 0 0 1-33.215959 38.655952zM988.062765 767.99952a35.967955 35.967955 0 0 1-36.031955-36.031955v-85.951893a512.31936 512.31936 0 0 1-156.991804 164.671795A509.439363 509.439363 0 0 1 512.03136 895.99936a510.079362 510.079362 0 0 1-348.991564-137.407828A510.207362 510.207362 0 0 1 1.439998 422.719952a36.031955 36.031955 0 0 1 71.80791-5.439994 438.591452 438.591452 0 0 0 138.815827 288.63964A438.591452 438.591452 0 0 0 512.03136 823.99945c87.039891 0 171.071786-25.279968 243.199696-73.279908a439.67945 439.67945 0 0 0 148.799814-166.719792h-99.967875a35.967955 35.967955 0 1 1 0-71.99991h183.93577c19.839975 0 36.031955 15.99998 36.031955 35.903955V731.967565A35.967955 35.967955 0 0 1 987.998765 767.99952h0.064z"  horiz-adv-x="1024" />

    
    <glyph glyph-name="jiance" unicode="&#59082;" d="M512 896a512 512 0 1 1 0-1024A512 512 0 0 1 512 896z m0-960c-247.04 0-448 200.96-448 448s200.96 448 448 448c115.2 0 220.416-43.712 299.84-115.392l-126.912-126.912A268.8 268.8 0 1 1 466.56 119.04a92.8 92.8 0 0 1 89.6-68.608 92.8 92.8 0 0 1 92.608 92.736 98.56 98.56 0 0 1-0.448 9.088 268.608 268.608 0 0 1 69.504 404.672l126.848 126.912A446.08 446.08 0 0 0 960 384c0-247.04-200.96-448-448-448z m0 389.504a58.56 58.56 0 0 1 53.888 81.28l120.128 120.192a225.152 225.152 0 0 0-53.184-332.992 87.872 87.872 0 0 1-166.592-30.592A225.6 225.6 0 0 0 286.72 384c0 124.16 101.12 225.28 225.28 225.28 54.272 0 104.064-19.328 142.976-51.328L534.848 437.888A58.624 58.624 0 0 1 453.504 384c0-32.256 26.24-58.496 58.496-58.496z"  horiz-adv-x="1024" />

    
    <glyph glyph-name="jiedong" unicode="&#59083;" d="M864.32 537.344H773.76V537.6h-62.208v-0.256H314.944v90.88a186.88 186.88 0 0 0 186.88 186.88h22.528c78.08 0 144.64-47.872 172.8-115.712h67.072A249.152 249.152 0 0 1 524.608 880.64h-22.528A249.344 249.344 0 0 1 252.8 631.296v-93.952H162.112a45.248 45.248 0 0 1-45.312-45.312v-563.2c0-25.088 20.224-45.312 45.312-45.312H864.64a45.248 45.248 0 0 1 45.312 45.312v563.2a45.632 45.632 0 0 1-45.568 45.312z m-20.736-588.288H182.848V472.064h660.736v-523.008zM472.768 114.112a26.88 26.88 0 0 0-18.944 7.872l-94.08 94.08a26.816 26.816 0 0 0 37.888 37.888l75.136-75.072L606.08 312.128a26.88 26.88 0 0 0 44.864-12.032 26.816 26.816 0 0 0-6.912-25.856l-152.32-152.32a26.88 26.88 0 0 0-18.944-7.808z"  horiz-adv-x="1024" />

    
    <glyph glyph-name="jihuo" unicode="&#59084;" d="M887.296 730.496A504.576 504.576 0 0 1 534.08 893.632C254.016 904.896 17.088 686.016 5.952 405.952a504.704 504.704 0 0 1 134.464-365.184 504.576 504.576 0 0 1 353.28-163.072 503.552 503.552 0 0 1 124.288 10.24 39.04 39.04 0 1 1-16.064 76.608 428.416 428.416 0 0 0-105.28-8.64 427.136 427.136 0 0 0-298.88 137.92 427.712 427.712 0 0 0-113.664 308.928 430.656 430.656 0 0 0 446.912 412.672 427.136 427.136 0 0 0 298.88-137.92 427.84 427.84 0 0 0 113.792-308.992 425.984 425.984 0 0 0-53.312-191.04 39.04 39.04 0 1 1 68.48-37.888 503.744 503.744 0 0 1 62.976 225.92 504.96 504.96 0 0 1-134.528 364.992z m-219.584-512.32l83.2-16.384a31.168 31.168 0 0 1 36.736 24.704 31.36 31.36 0 0 1-24.704 36.736l-195.968 38.72a31.36 31.36 0 0 1-36.736-24.704c0-0.128 0-0.32-0.128-0.448a31.68 31.68 0 0 1-2.752-14.336l9.792-199.488c0.768-16.768 14.72-29.696 31.168-29.696h1.6a31.168 31.168 0 0 1 29.696 32.768l-5.696 117.76 253.12-293.952a39.04 39.04 0 0 1 55.168-4.096 39.104 39.104 0 0 1 4.096 55.232l-238.592 277.184z"  horiz-adv-x="1024" />

    
    <glyph glyph-name="jiazai" unicode="&#59085;" d="M256.015999 384.031998a36.541716 36.541716 0 0 1-36.541716 36.541716H36.509718a36.541716 36.541716 0 1 1 0-73.083432H219.538279A36.541716 36.541716 0 0 1 256.015999 384.031998z m731.410287 36.541716H804.461721a36.541716 36.541716 0 1 1 0-73.083432h182.900569a36.541716 36.541716 0 1 1 0 73.083432zM290.317855 256.039998a36.541716 36.541716 0 0 1-49.91688 13.43916L81.946878 177.964877a36.541716 36.541716 0 0 1 18.302856-68.219736c6.3996 0 12.735204 1.727892 18.23886 4.927692l158.390101 91.386288A36.541716 36.541716 0 0 1 290.317855 256.039998z m443.36429 255.984001a36.349728 36.349728 0 0 1 49.91688-13.439161l158.390101 91.514281a36.541716 36.541716 0 1 1-36.541716 63.35604l-158.390101-91.51428a36.541716 36.541716 0 0 1-13.375164-49.91688zM384.008 162.349853a36.541716 36.541716 0 0 1-49.916881-13.43916L242.576839-9.351416a36.541716 36.541716 0 0 1 13.43916-49.91688 36.413724 36.413724 0 0 1 49.91688 13.375164l91.386289 158.326105a36.541716 36.541716 0 0 1-13.375165 49.91688z m255.984 443.36429a36.349728 36.349728 0 0 1 49.916881 13.43916l91.51428 158.326105a36.541716 36.541716 0 1 1-63.35604 36.541716L626.55284 655.695019a36.541716 36.541716 0 0 1 13.43916-49.980876zM512 128.047997a36.541716 36.541716 0 0 1-36.541716-36.541716v-182.900569a36.541716 36.541716 0 0 1 73.147428 0V91.570277A36.541716 36.541716 0 0 1 512 128.047997z m0 511.968002a36.541716 36.541716 0 0 1 36.541716 36.541716V859.52228a36.541716 36.541716 0 1 1-73.083432 0V676.493719c0-20.15874 16.31898-36.541716 36.541716-36.541716z m177.908881-491.04131a36.541716 36.541716 0 0 1-63.356041-36.605712l91.514281-158.326105a36.349728 36.349728 0 0 1 49.91688-13.43916 36.541716 36.541716 0 0 1 13.43916 49.980876l-91.51428 158.390101z m-383.976002 665.046435a36.541716 36.541716 0 1 1-63.35604-36.541716l91.51428-158.390101a36.349728 36.349728 0 0 1 49.916881-13.43916 36.541716 36.541716 0 0 1 13.43916 50.044872L305.932879 814.021124z m636.056247-635.992251l-158.326105 91.386289a36.541716 36.541716 0 1 1-36.605712-63.356041l158.390101-91.386288a36.349728 36.349728 0 0 1 49.91688 13.375164 36.541716 36.541716 0 0 1-13.375164 49.91688zM82.010874 590.035123l158.326105-91.386289A36.413724 36.413724 0 0 1 290.253859 512.023999a36.541716 36.541716 0 0 1-13.311168 49.91688L118.55259 653.455159a36.541716 36.541716 0 1 1-36.541716-63.35604z"  horiz-adv-x="1024" />

    
    <glyph glyph-name="piliangjiancha" unicode="&#59086;" d="M882.17728 896c29.632 0 58.88-22.912 68.032-53.248l69.376-229.888c3.712-12.352 4.288-35.648 4.416-40.896L1023.93728 384h-69.376V543.36H67.32928v-589.632c0-10.24 8.128-18.56 18.24-18.56L512.00128-64.704V-128H70.40128A70.656 70.656 0 0 0 0.00128-57.024V570.88c0 0.256 0.256 28.032 4.48 41.92L73.85728 842.752C83.07328 873.152 112.25728 896 141.88928 896h740.288z m-145.92-520.96c60.032 0 115.328-24.064 156.16-64.896a218.24 218.24 0 0 0 64.96-156.224 216.32 216.32 0 0 0-48.128-137.024l96.192-96.192-31.232-38.4-96.192 96.128a216.32 216.32 0 0 0-136.96-48.064 219.968 219.968 0 0 0-156.288 64.896 218.24 218.24 0 0 0-64.896 156.224c0 60.096 24.064 115.392 64.896 156.224 40.896 40.896 91.328 67.328 151.424 67.328z m2.368-52.864c-45.696 0-88.96-19.2-120.192-50.496-33.664-31.232-50.496-74.496-50.496-120.192s19.2-88.96 50.496-120.192c33.664-31.232 74.496-50.496 120.192-50.496 45.632 0 88.96 19.2 120.192 50.56 33.664 31.168 50.432 74.432 50.432 120.128s-19.2 88.96-50.432 120.192c-31.296 33.664-74.56 50.496-120.192 50.496zM288.00128 448a32 32 0 0 0 0-64h-128a32 32 0 0 0 0 64h128zM867.84128 836.16H156.16128c-6.08 0-15.488-6.976-18.112-15.68L72.57728 606.528h878.848L885.95328 820.48c-2.624 8.704-12.16 15.68-18.048 15.68z"  horiz-adv-x="1024" />

    
    <glyph glyph-name="koushouzhongzhi" unicode="&#59087;" d="M800 320a224 224 0 1 0 0-448 224 224 0 0 0 0 448z m-72 576C785.472 896 832 838.656 832 768v-384h-64V768c0 35.392-22.528 64-50.304 64H114.304C86.528 832 64 803.264 64 768v-768c0-35.392 22.528-64 50.304-64H576v-64H104C46.528-128 0-70.784 0 0V768C0 838.784 46.528 896 104 896h624zM800 256a160 160 0 1 1 0-320 160 160 0 0 1 0 320z m83.136-112a32 32 0 0 0-11.712-43.712l-110.848-64a32 32 0 0 0-32 55.424l110.848 64a32 32 0 0 0 43.712-11.712zM409.984 284.224c17.024 0 32-12.288 32.512-28.928a30.208 30.208 0 0 0-30.976-30.336H256.512c-17.024 0-32 12.352-32.512 28.928-0.512 17.088 13.504 30.336 31.04 30.336h154.944zM628.48 462.592c17.024 0 32-12.352 32.512-28.928a30.208 30.208 0 0 0-30.976-30.336H256.512c-17.024 0-32 12.288-32.512 28.928a30.208 30.208 0 0 0 31.04 30.336H628.48zM628.48 640c17.024 0 32-12.352 32.512-28.928a30.208 30.208 0 0 0-30.976-30.336H256.512c-17.024 0-32 12.288-32.512 28.928-0.512 17.024 13.504 30.336 31.04 30.336H628.48z"  horiz-adv-x="1024" />

    
    <glyph glyph-name="piliangfuhe" unicode="&#59088;" d="M799.552 320c39.488 0.128 77.184-12.8 104.96-35.84 27.776-23.04 43.2-54.208 42.88-86.72-0.384-25.6-8.512-50.624-23.936-72.768-27.008-32.256-36.224-61.952-31.232-79.488l1.728-4.48h63.744c17.792-0.192 34.816-6.208 47.36-16.96a51.392 51.392 0 0 0 18.56-32.256l0.384-7.296v-89.728c0-10.88-9.28-19.904-21.76-22.016l-5.504-0.448h-392.96c-13.312 0-24.576 7.872-27.2 18.304L576-104.96v90.24a51.136 51.136 0 0 0 18.944 39.616c10.496 8.832 24 14.528 38.528 16.32l8.832 0.64h65.024c7.68 15.616-0.64 42.368-23.04 74.88l-6.464 9.088v2.88a130.048 130.048 0 0 0-23.68 72.192c1.28 65.856 65.92 118.592 145.408 119.168z m-71.552 576C785.472 896 832 838.656 832 768v-384h-64V768c0 35.392-22.528 64-50.304 64H114.304C86.528 832 64 803.264 64 768v-768c0-35.392 22.528-64 50.304-64H512v-64H104C46.528-128 0-70.784 0 0V768C0 838.784 46.528 896 104 896h624z m72.256-640c-46.784 0-84.736-29.248-84.736-65.28 0.576-15.744 6.336-31.296 16.832-44.8 49.088-61.76 54.144-111.616 14.208-141.824l-6.656-4.608-4.096-2.688h-90.56a5.888 5.888 0 0 1-3.904-1.28 3.776 3.776 0 0 1-1.28-1.984V-64H960v56.32a3.392 3.392 0 0 1-1.408 3.2l-1.792 0.896-2.176 0.384H864.64l-4.096 2.688c-46.336 29.632-44.096 81.536 7.616 146.432 10.496 13.44 16.384 28.992 16.768 44.8 0 36.032-37.952 65.28-84.672 65.28z m-390.272 28.224c17.024 0 32-12.288 32.512-28.928a30.208 30.208 0 0 0-30.976-30.336H256.512c-17.024 0-32 12.352-32.512 28.928-0.512 17.088 13.504 30.336 31.04 30.336h154.944zM628.48 462.592c17.024 0 32-12.352 32.512-28.928a30.208 30.208 0 0 0-30.976-30.336H256.512c-17.024 0-32 12.288-32.512 28.928a30.208 30.208 0 0 0 31.04 30.336H628.48zM628.48 640c17.024 0 32-12.352 32.512-28.928a30.208 30.208 0 0 0-30.976-30.336H256.512c-17.024 0-32 12.288-32.512 28.928-0.512 17.024 13.504 30.336 31.04 30.336H628.48z"  horiz-adv-x="1024" />

    
    <glyph glyph-name="piliangzhongfa" unicode="&#59089;" d="M903.616 896C969.984 896 1024 841.984 1024 775.616V-7.68A120.576 120.576 0 0 0 903.552-128H120.384A120.512 120.512 0 0 0 0-7.616V775.68C0 841.984 54.016 896 120.384 896H903.68z m0-69.12H120.32a51.328 51.328 0 0 1-51.264-51.264V-7.68c0-28.288 23.04-51.264 51.264-51.264H903.68c28.288 0 51.264 23.04 51.264 51.264V775.68a51.392 51.392 0 0 1-51.264 51.264zM531.392 694.72l1.984-0.768 160.64-92.736a6.208 6.208 0 0 0 0-10.688l-160.64-92.736a6.144 6.144 0 0 0-6.208 0 6.208 6.208 0 0 0-3.008 5.376V570.496a222.528 222.528 0 0 1-210.304-221.888 222.72 222.72 0 0 1 222.528-222.528 222.72 222.72 0 0 1 222.528 222.528h49.408a272.32 272.32 0 0 0-272-272 272.32 272.32 0 0 0-271.936 272 272 272 0 0 0 259.776 271.36V688.576a6.4 6.4 0 0 0 3.008 5.376 6.208 6.208 0 0 0 6.208 0z"  horiz-adv-x="1024" />

    
    <glyph glyph-name="quxiaoshuaxin" unicode="&#59090;" d="M927.279104 887.808l-137.0112-131.822933C602.944171 920.917333 316.770304 914.432 138.594304 736.392533-35.212629 562.449067-45.520896 285.696 107.532971 98.372267L16.260437 10.4448a28.194133 28.194133 0 0 1-0.4096-40.277333 29.2864 29.2864 0 0 1 40.96-0.4096l89.770667 86.4256 6.3488-6.144c182.6816-169.710933 466.261333-170.257067 648.260267-1.365334l12.834133 12.356267a36.864 36.864 0 0 1-47.104 56.456533l-5.051733-4.3008c-154.282667-154.282667-404.343467-156.194133-562.312534-6.075733l578.56 557.2608a406.801067 406.801067 0 0 0 100.829867-283.170133L790.540971 481.962667a36.386133 36.386133 0 0 1-51.2 4.232533l-0.4096-0.273067-0.4096-0.341333a36.864 36.864 0 0 1-3.2768-52.0192l136.738133-156.330667 1.706667-1.774933a36.864 36.864 0 0 1 50.312533-1.8432l155.648 136.328533a36.795733 36.795733 0 0 1 3.413333 51.882667v0.068267a36.522667 36.522667 0 0 1-51.950933 3.549866L952.879104 396.970667a480.802133 480.802133 0 0 1-121.787733 318.395733l136.8064 131.754667a28.194133 28.194133 0 0 1 0.4096 40.277333 29.2864 29.2864 0 0 1-41.028267 0.4096z m-190.122667-183.0912l-576.443733-555.076267c-125.3376 158.242133-115.370667 388.9152 30.242133 534.528C340.117504 833.262933 578.709504 840.021333 737.156437 704.648533z"  horiz-adv-x="1092" />

    
    <glyph glyph-name="piliangzhuibao" unicode="&#59091;" d="M903.616 896C969.984 896 1024 841.984 1024 775.616V-7.68A120.576 120.576 0 0 0 903.552-128H120.384A120.512 120.512 0 0 0 0-7.616V775.68C0 841.984 54.016 896 120.384 896H903.68z m0-69.12H120.32a51.328 51.328 0 0 1-51.264-51.264V-7.68c0-28.288 23.04-51.264 51.264-51.264H903.68c28.288 0 51.264 23.04 51.264 51.264V775.68a51.392 51.392 0 0 1-51.264 51.264z m-124.608-151.68v-218.752H632.768V383.36h181.12v-56.384h-147.584c40.96-65.088 104.64-126.784 165.696-161.024-13.44-12.032-34.24-34.176-43.584-49.6-56.32 37.568-113.408 99.904-155.648 167.04v-193.92h-62.4V280c-44.928-67.072-104-126.72-163.712-162.304a275.072 275.072 0 0 1-42.88 49.6c64.384 32.896 130.112 93.952 173.696 159.68h-152.32v56.32h185.216V456.512h-138.24V675.2h346.88zM355.712 704l58.368-18.752c-19.072-46.72-41.024-92.224-65.792-136.192v-457.6H289.28V458.56c-19.072-26.24-39.936-51.136-62.4-74.496l-3.2 7.36c-7.68 16.64-21.888 43.072-31.68 55.68C257.088 508.8 318.784 605.44 355.712 704z m360.96-83.84H490.496v-108.032h226.048V620.16z"  horiz-adv-x="1024" />

    
    <glyph glyph-name="shijianshezhi" unicode="&#59092;" d="M771.072 408.32H536.32V643.136a33.216 33.216 0 0 1-33.536 33.472 33.216 33.216 0 0 1-33.536-33.472v-268.16c0-18.816 14.72-33.6 33.536-33.6h268.16c18.816 0 33.536 14.72 33.536 33.536a33.216 33.216 0 0 1-33.472 33.536zM502.912 877.76A503.04 503.04 0 0 1 0 374.848 503.04 503.04 0 0 1 502.848-128a503.04 503.04 0 0 1 502.848 502.848A503.04 503.04 0 0 1 502.848 877.696z m0-938.624a435.84 435.84 0 1 0-0.064 871.552 435.84 435.84 0 0 0 0-871.552z"  horiz-adv-x="1024" />

    
    <glyph glyph-name="zidong" unicode="&#59093;" d="M548.288 552h-62.272L356.672 136.96h58.368l33.28 119.104h129.28l39.936-119.04h66.56L548.288 551.936z m19.072-246.528H460.736c6.016 16.96 18.432 58.368 28.736 93.952 10.24 35.648 19.328 58.368 25.984 79.168 14.784-41.408 43.52-142.016 52.544-170.944l-0.64-2.176zM289.92 753.92l-8.768-4.48a475.328 475.328 0 0 1-173.824-169.6A484.928 484.928 0 0 1 42.112 339.008a473.6 473.6 0 0 1 46.592-203.392l-71.68-47.36 164.992-40.832h6.016l31.744 172.288-74.048-46.528a376.512 376.512 0 0 0-37.76 168 402.688 402.688 0 0 0 204.928 352l9.6 4.544-32.576 56.256z m679.296-319.744a466.496 466.496 0 0 1-157.44 267.776 488.192 488.192 0 0 1-140.8 78.528 525.696 525.696 0 0 1-114.56 25.088V890.112l-128.704-119.04 128.704-119.04V739.904a402.944 402.944 0 0 0 349.952-320.384l4.48-9.6 62.848 12.608-4.48 11.584z m-23.808-186.432v6.016l-148.032-73.984-11.84-5.12 78.528-31.168a374.912 374.912 0 0 0-116.032-127.232 403.456 403.456 0 0 0-406.144-32.64l-8.832 5.12-26.624-59.136 8.832-5.12a467.712 467.712 0 0 1 206.4-46.592h31.744a486.208 486.208 0 0 1 234.496 84.288 475.712 475.712 0 0 1 140.544 154.688l79.168-31.744-62.208 162.624z"  horiz-adv-x="1024" />

    
    <glyph glyph-name="weihu" unicode="&#59094;" d="M880 896c73.92 0 134.4-60.48 134.4-134.4v-745.6c0-73.92-60.48-134.4-134.4-134.4H134.4c-73.92 0-134.4 60.48-134.4 134.4V761.6C0 835.456 60.48 896 134.4 896z m0-67.2H134.4A67.584 67.584 0 0 1 67.2 761.6v-745.6A67.584 67.584 0 0 1 134.4-51.2h745.6a67.584 67.584 0 0 1 67.2 67.2V761.6a67.584 67.584 0 0 1-67.2 67.2zM603.84 324.416a13.44 13.44 0 0 0 18.88-0.064l134.4-134.4a53.824 53.824 0 0 0 0-75.968l-5.504-4.8a54.016 54.016 0 0 0-70.4 4.8l-134.4 134.4a13.44 13.44 0 0 0 0 18.944zM639.104 672c22.784 0.128 30.08-16.768 15.36-31.36l-29.568-29.568c-31.36-31.488-31.36-82.368 0.128-113.792l6.528-5.76a80.832 80.832 0 0 1 107.392 5.76l29.44 29.44c5.184 5.12 10.56 7.552 15.424 7.552 10.624 0 18.688-11.52 15.488-31.552A147.2 147.2 0 0 0 623.232 381.44l-247.168-247.168a80.64 80.64 0 0 0-113.792 0 80.32 80.32 0 0 0 0 113.728l247.04 247.168A147.392 147.392 0 0 0 630.72 671.36l4.224 0.448z m-25.92-390.592l-23.68-23.68 117.696-117.632a16.704 16.704 0 0 1 23.68 23.68L613.12 281.408z m-294.016-63.488a26.88 26.88 0 1 1 19.072-45.76l3.2 3.84a26.88 26.88 0 0 1-22.272 41.92z m256.64 386.432a109.888 109.888 0 0 1-30.464-101.44l0.768-6.208a36.864 36.864 0 0 0-10.816-27.584L321.28 254.976a63.936 63.936 0 0 0 61.568-61.568L597.12 407.552a36.928 36.928 0 0 0 33.792 10.048l7.552-1.28a110.016 110.016 0 0 1 93.952 31.488l-9.536-4.096a115.84 115.84 0 0 0-40.64-7.168l-10.368 0.448a116.928 116.928 0 0 0-72.768 33.92l-7.04 7.68a116.48 116.48 0 0 0-27.392 75.52c0 17.344 3.776 34.56 11.136 50.24z m-313.792 42.56l66.368-47.488 20.928-39.744 92.8-93.184-37.888-37.888L311.168 521.6l-39.744 20.928L224 609.024l38.016 37.888z"  horiz-adv-x="1024" />

    
    <glyph glyph-name="dangqianzhuangtai" unicode="&#58886;" d="M512 384m-512 0a512 512 0 1 1 1024 0 512 512 0 1 1-1024 0ZM512 384m-361.411765 0a361.411765 361.411765 0 1 1 722.82353 0 361.411765 361.411765 0 1 1-722.82353 0ZM512 384m-180.705882 0a180.705882 180.705882 0 1 1 361.411764 0 180.705882 180.705882 0 1 1-361.411764 0Z"  horiz-adv-x="1024" />

    
    <glyph glyph-name="tiaoguo" unicode="&#58885;" d="M512 384m-512 0a512 512 0 1 1 1024 0 512 512 0 1 1-1024 0ZM617.429333 546.346667L779.776 384l-162.346667-162.346667-40.192 40.234667 93.610667 93.653333H369.792v56.917334h301.056L577.28 506.112l40.192 40.234667z m-304.554666-133.888v-56.917334H256v56.917334h56.874667z"  horiz-adv-x="1024" />

    
    <glyph glyph-name="hou" unicode="&#58881;" d="M226.977576-106.496409a71.269046 71.269046 0 0 0 0 103.319637L623.258047 383.990272 226.875178 771.157316a71.269046 71.269046 0 0 0 0 103.217239 75.364968 75.364968 0 0 0 105.572395 0l396.28047-387.167044 79.358492-77.617725a35.122533 35.122533 0 0 0 0-51.199027l-79.358492-77.617726-396.28047-387.167044a75.364968 75.364968 0 0 0-105.572395 0z"  horiz-adv-x="1024" />

    
    <glyph glyph-name="yiwancheng" unicode="&#58882;" d="M0 384c0-282.752 229.248-512 512-512s512 229.248 512 512S794.752 896 512 896 0 666.752 0 384zM263.253333 426.922667a41.813333 41.813333 0 0 0 59.221334 0l157.952-157.994667a41.898667 41.898667 0 1 0-59.178667-59.178667L263.253333 367.701333a41.813333 41.813333 0 0 0 0 59.221334z m157.994667-157.994667l289.578667 289.621333a41.898667 41.898667 0 0 0 59.221333-59.221333l-289.621333-289.578667a41.898667 41.898667 0 0 0-59.178667 59.178667z"  horiz-adv-x="1024" />

    
    <glyph glyph-name="qian" unicode="&#58883;" d="M797.016759-106.376717a71.26192 71.26192 0 0 1 0 103.309306L400.775912 384.060921l396.240847 387.128331a71.26192 71.26192 0 0 1 0 103.206919 75.357432 75.357432 0 0 1-105.561838 0L295.214073 487.267839l-79.350557-77.609964a35.119021 35.119021 0 0 1 0-51.193908l79.350557-77.609965 396.240848-387.128331a75.357432 75.357432 0 0 1 105.561838 0z"  horiz-adv-x="1024" />

    
    </font>
</defs>
</svg>
