<svg xmlns="http://www.w3.org/2000/svg" xmlns:xlink="http://www.w3.org/1999/xlink" width="160" height="160" viewBox="0 0 160 160" fill="none">
<g opacity="0.6">
<path d="M83.8314 135.466C116.896 135.466 143.701 109.081 143.701 76.5331C143.701 74.591 143.605 72.6709 143.419 70.777L152.797 70.777C155.155 70.777 157.067 68.8652 157.067 66.507L157.067 66.2755C157.067 64.2764 155.693 62.5982 153.838 62.1333L135.737 62.1333C133.378 62.1333 131.467 60.2216 131.467 57.8633L131.467 56.5367C131.467 54.1784 133.378 52.2667 135.737 52.2667L141.004 52.2667C142.561 51.8186 143.701 50.3832 143.701 48.6816L143.701 48.4666C143.701 46.4066 142.031 44.7366 139.971 44.7366L134.248 44.7366C132.409 41.9176 130.333 39.2629 128.048 36.7999L116.003 36.7999C114.087 36.7999 112.533 35.2463 112.533 33.3299L112.533 33.0699C112.533 31.1535 114.087 29.5999 116.003 29.5999L120.046 29.5999C109.99 22.0699 97.4409 17.5998 83.8314 17.5998C76.9031 17.5998 70.2497 18.7582 64.0602 20.8891L41.5628 20.8891C38.7627 20.8891 36.4928 23.159 36.4928 25.9591L36.4928 26.2352C36.4928 29.0353 38.7627 31.3052 41.5628 31.3052L45.4458 31.3052C45.3806 31.3589 45.3156 31.4127 45.2506 31.4666L53.0667 31.4666C54.5395 31.4666 55.7334 32.6605 55.7334 34.1332C55.7334 35.606 54.5395 36.7999 53.0667 36.7999L19.3021 36.7999C15.3788 37.025 12.2667 40.2778 12.2667 44.2575L12.2667 44.6676C12.2667 48.7931 15.6112 52.1376 19.7367 52.1376L29.3164 52.1376C25.8777 59.5714 23.9621 67.8321 23.9621 76.5331C23.9621 77.4519 23.9835 78.3658 24.0257 79.2743L18.6278 79.2743C17.1139 79.2743 15.8867 80.5015 15.8867 82.0154C15.8867 83.5292 17.1139 84.7565 18.6278 84.7565L24.5403 84.7565C24.5424 84.771 24.5444 84.7855 24.5465 84.8L26.9301 84.8C28.8465 84.8 30.4001 86.3536 30.4001 88.27L30.4001 88.53C30.4001 90.4464 28.8465 92 26.9301 92L24.1617 92C23.5552 92.2422 23.1267 92.835 23.1267 93.5279C23.1267 94.4362 23.8631 95.1726 24.7714 95.1726L27.0183 95.1726C34.9419 118.586 57.384 135.466 83.8314 135.466Z" fill-rule="evenodd"  fill="#F3F3FA" >
</path>
</g>
<path d="M38.9733 115.893L38.9033 116.803L42.2733 116.803C42.2233 116.283 42.1833 115.753 42.1533 115.183C42.1233 114.723 42.0933 114.193 42.0733 113.613C42.0533 113.023 42.0433 112.443 42.0433 111.863L42.0433 107.963L45.6933 107.913L46.1333 107.913C46.2933 107.913 46.4333 107.913 46.5533 107.893C46.7133 107.893 46.8633 107.883 47.0033 107.873C47.3733 107.713 47.6833 107.473 47.9133 107.133C48.1533 106.803 48.2633 106.413 48.2633 105.973L48.2233 105.673L48.1233 105.303C48.0833 105.163 48.0433 105.023 48.0133 104.903L47.6133 104.113C47.6933 103.823 47.7333 103.563 47.7333 103.313C47.7333 102.703 47.5533 102.173 47.2133 101.703C46.8733 101.233 46.4333 100.903 45.9033 100.713L42.9533 94.9434C42.7333 94.4634 42.4033 94.0734 41.9533 93.7734C41.5133 93.4834 41.0133 93.3334 40.4433 93.3334C39.8033 93.3334 39.2833 93.5234 38.8833 93.9134C38.4733 94.3034 38.1233 94.7734 37.8233 95.3234L37.8033 95.3234L34.1233 102.123C33.8733 102.343 33.6733 102.593 33.5033 102.893C33.3433 103.193 33.2433 103.513 33.2133 103.853L32.6233 105.203C32.5933 105.283 32.5733 105.363 32.5533 105.443C32.5533 105.443 32.5333 105.603 32.5333 105.693C32.5333 106.243 32.7033 106.713 33.0433 107.113C33.3933 107.513 33.8233 107.773 34.3333 107.893L36.9833 108.033C37.1033 108.253 37.2633 108.423 37.4633 108.553C37.6533 108.673 37.8833 108.733 38.1533 108.733C38.4833 108.733 38.7733 108.623 39.0433 108.383L39.0433 111.963C39.0433 112.993 39.0333 113.813 39.0233 114.423C39.0033 115.043 38.9833 115.533 38.9733 115.893Z"   fill="url(#linear_0)" >
</path>
<path d="M130.28 104.113C130.36 103.823 130.4 103.563 130.4 103.313C130.4 102.703 130.22 102.173 129.88 101.703C129.54 101.233 129.1 100.903 128.57 100.713L125.62 94.9434C125.4 94.4634 125.07 94.0734 124.62 93.7734C124.18 93.4834 123.68 93.3334 123.11 93.3334C122.47 93.3334 121.95 93.5234 121.55 93.9134C121.14 94.3034 120.79 94.7734 120.49 95.3234L120.47 95.3234L116.79 102.123C116.54 102.343 116.34 102.593 116.17 102.893C116.01 103.193 115.91 103.513 115.88 103.853L115.29 105.203C115.26 105.283 115.24 105.363 115.22 105.443C115.22 105.443 115.2 105.603 115.2 105.693C115.2 106.243 115.37 106.713 115.71 107.113C116.06 107.513 116.49 107.773 117 107.893L119.65 108.033C119.77 108.253 119.93 108.423 120.13 108.553C120.32 108.673 120.55 108.733 120.82 108.733C121.15 108.733 121.44 108.623 121.71 108.383L121.71 111.963C121.71 112.993 121.7 113.813 121.69 114.423C121.67 115.043 121.65 115.533 121.64 115.893L121.57 116.803L124.94 116.803C124.89 116.283 124.85 115.753 124.82 115.183C124.79 114.723 124.76 114.193 124.74 113.613C124.72 113.023 124.71 112.443 124.71 111.863L124.71 107.963L128.36 107.913L128.8 107.913C128.96 107.913 129.1 107.913 129.22 107.893C129.38 107.893 129.53 107.883 129.67 107.873C130.04 107.713 130.35 107.473 130.58 107.133C130.82 106.803 130.93 106.413 130.93 105.973L130.89 105.673L130.79 105.303C130.75 105.163 130.71 105.023 130.68 104.903L130.28 104.113Z"   fill="url(#linear_1)" >
</path>
<path d="M121.03 108.08L120.96 107.78C120.92 107.67 120.89 107.57 120.87 107.47L120.56 106.85C120.62 106.63 120.65 106.42 120.65 106.23C120.65 105.75 120.51 105.33 120.24 104.96C119.98 104.6 119.64 104.34 119.22 104.19L116.92 99.66C116.75 99.29 116.49 98.98 116.15 98.75C115.8 98.52 115.41 98.4 114.97 98.4C114.47 98.4 114.06 98.55 113.75 98.86C113.43 99.16 113.16 99.53 112.93 99.96L112.91 99.96L110.04 105.29C109.85 105.46 109.69 105.66 109.56 105.9C109.43 106.13 109.35 106.38 109.33 106.65L108.87 107.71C108.85 107.77 108.83 107.83 108.82 107.89C108.82 107.89 108.8 108.02 108.8 108.09C108.8 108.52 108.93 108.89 109.2 109.2C109.47 109.52 109.8 109.72 110.21 109.82L112.27 109.93C112.37 110.1 112.49 110.23 112.64 110.33C112.79 110.43 112.97 110.48 113.18 110.48C113.44 110.48 113.67 110.39 113.87 110.2L113.87 113.01C113.87 113.81 113.87 114.46 113.86 114.94C113.84 115.42 113.83 115.8 113.82 116.09L113.77 116.8L116.39 116.8C116.36 116.4 116.33 115.98 116.3 115.54C116.28 115.17 116.26 114.76 116.24 114.3C116.22 113.84 116.21 113.38 116.21 112.93L116.21 109.87L119.06 109.84L119.41 109.84C119.53 109.84 119.64 109.83 119.73 109.82C119.86 109.82 119.97 109.81 120.08 109.8C120.37 109.68 120.61 109.48 120.79 109.22C120.98 108.96 121.07 108.66 121.07 108.31L121.03 108.08Z"   fill="url(#linear_2)" >
</path>
<path d="M123.241 127.329C121.539 127.833 119.623 128.307 117.518 128.749C117.572 129.03 117.6 129.314 117.6 129.6C117.6 136.08 103.512 141.333 86.1333 141.333C70.4985 141.333 57.527 137.082 55.0813 131.51C34.2189 129.925 19.4667 126.026 19.4667 121.467C19.4667 115.502 44.7178 110.667 75.8667 110.667C92.2349 110.667 106.975 112.002 117.278 114.134C127.354 114.202 135.467 117.22 135.467 120.933C135.467 123.876 130.372 126.382 123.241 127.329Z" fill-rule="evenodd"  fill="#E7EAF0" >
</path>
<ellipse cx="79.86663818359375" cy="123.81182479858398" rx="21.73333740234375" ry="1.7333335876464844"   fill="#D1D6E2" >
</ellipse>
<path d="M103.32 40.62C102.3 41.13 101.6 42.08 101.6 43.16C101.6 44.8 103.16 46.01 105.03 46.13L115.41 46.13C117.28 46.13 118.77 44.87 118.77 43.28C118.77 42.08 117.91 41.07 116.66 40.62L116.66 40.37C116.66 37.96 114.4 36 111.59 36C109.56 36 107.84 37.01 106.91 38.47C106.52 38.22 106.05 38.03 105.5 38.03C104.18 38.03 103.16 38.98 103.16 40.05C103.16 40.24 103.24 40.43 103.32 40.62Z"   fill="url(#linear_3)" >
</path>
<path   fill="rgba(209, 214, 226, 1)"  d="M88.6639 57.099L88.3539 56.799L88.4467 56.7032L88.3573 56.8021L88.0461 56.521L87.8448 56.3299L87.9367 56.2332L87.8475 56.3323L87.6475 56.1523L87.2563 55.8012L87.065 55.62L87.1567 55.5232L87.0703 55.6248L86.869 55.4537L86.6778 55.2826L86.7667 55.1832L86.6803 55.2848L86.4803 55.1148L86.2908 54.9552L85.8903 54.6148Q78.7316 48.6045 63.8193 51.1746L63.3753 51.2462L63.3151 50.8547L63.4433 50.8319L63.3151 50.8547L63.4433 50.8319Q78.7655 48.1076 86.1523 54.301L86.1541 54.3025L86.2559 54.3941L86.1667 54.4932L86.2528 54.3914L86.6428 54.7214L86.843 54.8916L87.0444 55.0627L87.3357 55.3239L87.6257 55.5839L88.0171 55.9452L87.9267 56.0432L88.0142 55.9427L88.326 56.2142L88.6378 56.5058L88.9494 56.8074L89.4983 57.3263L91.4389 59.187L91.6809 59.4289L91.5867 59.5232L91.6778 59.4258L91.9878 59.7158L92.2075 59.9156L92.4186 60.1166L92.3267 60.2132L92.4134 60.112L92.6249 60.2932L92.9564 60.5945Q95.6668 63.0266 98.1979 64.0801Q101.321 65.3976 105.789 65.4699Q113.211 65.5731 119.45 68.956Q120.361 69.4583 121.129 69.951L121.299 70.0613Q121.614 70.2744 121.886 70.4761L121.807 70.5832L121.882 70.4733L122.042 70.5833L122.366 70.816L122.367 70.8171L122.366 70.816L122.367 70.8171Q122.579 70.9781 122.68 71.0591Q123.24 71.5044 123.526 71.7645Q123.928 72.1264 124.151 72.3489Q125.356 73.5834 125.702 74.5273L125.468 74.6502L125.468 74.6502Q125.419 74.581 125.312 74.4278Q124.71 73.5627 124.267 73.0616L124.367 72.9732L124.27 73.065L124.367 72.9732L124.27 73.065Q124.194 72.9849 124.083 72.8666Q123.955 72.7299 123.902 72.6775L123.792 72.5675L123.887 72.4732L123.795 72.5701L123.887 72.4732L123.795 72.5701Q123.734 72.5121 123.612 72.3945Q123.372 72.1635 123.248 72.0526L123.337 71.9532L123.251 72.055L123.121 71.945Q122.613 71.5169 122.345 71.3084L122.427 71.2032L122.348 71.3107L122.198 71.2007L122.037 71.0799L121.888 70.9707Q121.571 70.7428 121.483 70.6841L121.321 70.5731L121.15 70.4521L121.227 70.3432L121.154 70.4551L120.814 70.2351Q120.398 69.9775 120.279 69.9084L120.097 69.797Q119.918 69.6878 119.54 69.4686L119.607 69.3532L119.543 69.4704L119.607 69.3532L119.543 69.4704Q113.152 66.0042 106.094 65.8865L106.091 65.8865L105.928 65.8763L105.937 65.7432L105.935 65.8765L105.937 65.7432L105.935 65.8765Q101.262 65.8177 98.0447 64.456Q95.4404 63.3697 92.6778 60.9026L92.347 60.6019L92.1448 60.4099L92.2367 60.3132L92.1493 60.414L91.997 60.2819L91.7847 60.0798L91.6357 59.9407L91.4045 59.7196L90.7546 59.0997L89.574 57.9591L89.2238 57.6188L89.3167 57.5232L89.2268 57.6217L88.8857 57.3107L88.6646 57.0996L88.6639 57.099ZM88.8487 56.9068L89.0687 57.1168L88.9767 57.2132L89.0665 57.1147L89.4081 57.4261L89.7593 57.7673L90.9387 58.9067L91.5888 59.5268L91.8176 59.7457L91.9686 59.8867L92.1786 60.0866L92.0867 60.1832L92.174 60.0824L92.3263 60.2144L92.5264 60.4045L92.8555 60.7038Q95.5845 63.1409 98.1486 64.2104Q101.318 65.5518 105.938 65.6099L105.942 65.6099L105.938 65.6099L105.942 65.6099L106.105 65.6201L106.097 65.7532L106.099 65.6199Q113.222 65.7386 119.67 69.236L119.672 69.2369L119.67 69.236L119.672 69.2369L119.673 69.2378Q120.055 69.4586 120.236 69.5694L120.414 69.678Q120.535 69.7489 120.959 70.0113L121.301 70.2327L121.472 70.3533L121.631 70.4623Q121.723 70.5236 122.046 70.7557L122.197 70.8665L122.356 70.9857L122.507 71.0968L122.509 71.098Q122.781 71.3096 123.293 71.7414L123.424 71.8526L123.426 71.8538Q123.553 71.9681 123.797 72.2024Q123.918 72.3194 123.978 72.3763L123.98 72.3776L123.978 72.3763L123.98 72.3776L124.091 72.4889Q124.146 72.5444 124.277 72.6842Q124.388 72.8019 124.463 72.8814L124.465 72.8831L124.463 72.8814L124.465 72.8831L124.466 72.8848Q124.92 73.3976 125.531 74.2755Q125.637 74.4273 125.686 74.4962L125.577 74.5732L125.686 74.4962L125.577 74.5732L125.451 74.6191Q125.125 73.7289 123.962 72.5375Q123.745 72.32 123.347 71.9619Q123.067 71.7076 122.513 71.2673Q122.415 71.1884 122.206 71.0293L122.287 70.9232L122.206 71.0293L122.287 70.9232L122.209 71.0315L121.891 70.8031L121.729 70.6917L121.727 70.6903Q121.46 70.492 121.154 70.2851L120.985 70.1754Q120.224 69.6875 119.323 69.1904Q113.142 65.8389 105.785 65.7365Q101.265 65.6634 98.0954 64.3263Q95.5224 63.2554 92.777 60.7919L92.447 60.4919L92.5367 60.3932L92.4499 60.4944L92.2372 60.3122L92.0247 60.1098L92.1167 60.0132L92.027 60.1119L91.8056 59.9106L91.494 59.6191L91.2544 59.3794L89.3151 57.5201L88.7639 56.999L88.4556 56.7006L88.1456 56.4106L88.2367 56.3132L88.1491 56.4137L87.8376 56.1425L87.4477 55.7825L87.1577 55.5225L86.8677 55.2625L86.9567 55.1632L86.8703 55.2648L86.6703 55.0948L86.4705 54.925L86.079 54.5937L85.9775 54.5023L86.0667 54.4032L85.981 54.5054Q78.6896 48.392 63.49 51.0945L63.4667 50.9632L63.49 51.0945L63.4667 50.9632L63.5985 50.9429L63.6185 51.0729L63.4867 51.0932L63.4654 50.9616L63.774 50.9118Q78.8083 48.3207 86.063 54.4116L86.4626 54.7512L86.653 54.9116L86.8543 55.0827L87.0456 55.2538L86.9567 55.3532L87.043 55.2516L87.2458 55.4239L87.4384 55.6064L87.3467 55.7032L87.4357 55.604L87.8259 55.9541L88.0272 56.1353L88.2285 56.3265L88.1367 56.4232L88.226 56.3243L88.5377 56.6058L88.8494 56.9074L88.8487 56.9068Z">
</path>
<path d="M61.0997 52.4289L59.4615 49.5398L50.2807 45.5647L60.4833 48.1811L62.6081 45.3185L48.38 44.6952L55.4274 54.2218L57.8778 51.1407L61.0997 52.4289Z"   fill="url(#linear_4)" >
</path>
<path d="M102.67 112.01L102.67 64.79C102.67 62.14 100.52 60 97.86 60L63.2 60C60.55 60 58.4 62.14 58.4 64.79L58.4 112.01C58.4 114.66 60.55 116.8 63.2 116.8L97.86 116.8C100.52 116.8 102.67 114.66 102.67 112.01Z"   fill="url(#linear_5)" >
</path>
<path d="M100.537 113.327L100.537 66.6767C100.537 64.0167 98.3867 61.8667 95.7467 61.8667L62.6567 61.8667C60.0067 61.8667 57.8667 64.0167 57.8667 66.6767L57.8667 113.327C57.8667 115.987 60.0067 118.137 62.6567 118.137L95.7467 118.137C98.3867 118.137 100.537 115.987 100.537 113.327Z"   fill="#D1D6E2" >
</path>
<path d="M96.0033 111.59L96.0033 66.28C96.0033 66.28 95.6933 65.6 95.3233 65.6L63.6133 65.6C63.2333 65.6 62.9333 66.28 62.9333 66.28L62.9333 111.59C62.9333 111.59 63.2333 112.27 63.6133 112.27L95.3233 112.27C95.6933 112.27 96.0033 111.59 96.0033 111.59Z"   fill="#E7EAF0" >
</path>
<path d="M95.0067 65.6L63.4767 65.6C63.0267 65.6 62.7367 65.96 62.7267 66.42C62.6167 71.78 64.5167 99.72 48.9067 101.13C48.2667 101.19 48.0367 102.02 48.5367 102.42C58.5967 110.57 74.8467 111.8 77.7967 112C78.0267 112.01 81.6767 111.59 81.8267 111.42L93.7967 96.96C93.9067 96.82 94.0167 96.5 94.0767 96.34L95.7367 66.33C95.7367 65.92 95.4067 65.6 95.0067 65.6Z"   fill="#FFFFFF" >
</path>
<path d="M81.7 101.993C81.87 104.243 82.07 109.283 76.8 112.003C85.97 111.933 93.03 102.013 94.13 96.5333C89.49 101.743 84.1 101.703 82.28 101.583C82.02 101.573 81.68 101.723 81.7 101.993Z"   fill="url(#linear_6)" >
</path>
<rect  x="69.86669921875" y="72.5333251953125" width="21.333343505859375" height="1.6000008583068848" rx="0.8"    fill="#D8D8D8" >
</rect>
<rect  x="69.3333740234375" y="77.86669921875" width="21.333343505859375" height="1.6000008583068848" rx="0.8"    fill="#D8D8D8" >
</rect>
<rect  x="68.800048828125" y="83.199951171875" width="10.666656494140625" height="1.5999985933303833" rx="0.8"    fill="#D8D8D8" >
</rect>
<rect  x="81.066650390625" y="83.199951171875" width="1.600006103515625" height="1.600006103515625" rx="0.8"    fill="#D8D8D8" >
</rect>
<rect  x="68.034423828125" y="88.1614990234375" width="21.333337783813477" height="1.6000003814697266" transform="rotate(1.9999998374628585 68.034423828125 88.1614990234375)" rx="0.8"    fill="#D8D8D8" >
</rect>
<rect  x="66.4818115234375" y="93.12451171875" width="21.33333969116211" height="1.6000005006790161" transform="rotate(3.9999991502249737 66.4818115234375 93.12451171875)" rx="0.8"    fill="#D8D8D8" >
</rect>
<rect  x="64.6824951171875" y="98.3609619140625" width="10.666666030883789" height="1.5999999046325684" transform="rotate(7.000000349001956 64.6824951171875 98.3609619140625)" rx="0.8"    fill="#D8D8D8" >
</rect>
<rect  x="76.857666015625" y="99.85595703125" width="1.5999999046325684" height="1.5999999046325684" transform="rotate(6.999999917787586 76.857666015625 99.85595703125)" rx="0.8"    fill="#D8D8D8" >
</rect>
<rect x="73.066650390625" y="61.86669921875" width="13.866668701171875" height="4.8000006675720215"   fill="#ACB4C2" >
</rect>
<path d="M72.8 61.87L86.67 61.87L87.73 60L73.87 60L72.8 61.87Z"   fill="#909AA9" >
</path>
<path d="M80.2667 60.5333C81.5922 60.5333 82.6667 59.4588 82.6667 58.1333C82.6667 56.8078 81.5922 55.7333 80.2667 55.7333C78.9412 55.7333 77.8667 56.8078 77.8667 58.1333C77.8667 59.4588 78.9412 60.5333 80.2667 60.5333ZM80.2666 59.4666C81.003 59.4666 81.6 58.8697 81.6 58.1333C81.6 57.3969 81.003 56.8 80.2666 56.8C79.5303 56.8 78.9333 57.3969 78.9333 58.1333C78.9333 58.8697 79.5303 59.4666 80.2666 59.4666Z" fill-rule="evenodd"  fill="#A2ABB9" >
</path>
<defs>
<linearGradient id="linear_0" x1="144.61875479398716%" y1="98.78599413110695%" x2="29.52222000779985%" y2="99.98582401933902%" gradientUnits="objectBoundingBox">
<stop offset="0" stop-color="#E0E5EF" stop-opacity="0" />
<stop offset="1" stop-color="#E0E5EF"  />
</linearGradient>
<linearGradient id="linear_1" x1="144.61875479398716%" y1="98.78599413110695%" x2="29.52222000779985%" y2="99.98582401933902%" gradientUnits="objectBoundingBox">
<stop offset="0" stop-color="#E0E5EF" stop-opacity="0" />
<stop offset="1" stop-color="#E0E5EF"  />
</linearGradient>
<linearGradient id="linear_2" x1="144.5491099351339%" y1="98.80021302596383%" x2="29.50800282795753%" y2="100.0002156133237%" gradientUnits="objectBoundingBox">
<stop offset="0" stop-color="#E0E5EF" stop-opacity="0" />
<stop offset="1" stop-color="#E0E5EF"  />
</linearGradient>
<linearGradient id="linear_3" x1="144.5699447847844%" y1="98.832444344433%" x2="29.51225601777436%" y2="100.03283840529657%" gradientUnits="objectBoundingBox">
<stop offset="0" stop-color="#E0E5EF" stop-opacity="0" />
<stop offset="1" stop-color="#E0E5EF"  />
</linearGradient>
<linearGradient id="linear_4" x1="49.98636517761778%" y1="99.99989718198846%" x2="-7.103489732801588e-13%" y2="-28.95793170585867%" gradientUnits="objectBoundingBox">
<stop offset="0" stop-color="#A2ABB9"  />
<stop offset="1" stop-color="#E7EAF0"  />
</linearGradient>
<linearGradient id="linear_5" x1="62.81762429932607%" y1="-7.5200125993868925%" x2="63.81762429932607%" y2="99.99999194078045%" gradientUnits="objectBoundingBox">
<stop offset="0" stop-color="#A2ABB9"  />
<stop offset="1" stop-color="#D1D6E2"  />
</linearGradient>
<linearGradient id="linear_6" x1="100.01929316710547%" y1="49.98925892707218%" x2="35.1013184149476%" y2="49.98925892707218%" gradientUnits="objectBoundingBox">
<stop offset="0" stop-color="#A2ABB9"  />
<stop offset="1" stop-color="#E7EAF0"  />
</linearGradient>
</defs>
</svg>
